<svg xmlns="http://www.w3.org/2000/svg" xmlns:xlink="http://www.w3.org/1999/xlink" width="500" zoomAndPan="magnify" viewBox="0 0 375 374.999991" height="500" preserveAspectRatio="xMidYMid meet" version="1.0"><defs><g/><clipPath id="6ba860b26e"><path d="M 166 56.84375 L 233 56.84375 L 233 139 L 166 139 Z M 166 56.84375 " clip-rule="nonzero"/></clipPath><clipPath id="7c3c84d817"><path d="M 108 121 L 266.980469 121 L 266.980469 211.34375 L 108 211.34375 Z M 108 121 " clip-rule="nonzero"/></clipPath><clipPath id="7c72378900"><path d="M 107.574219 201.828125 L 267.5 201.828125 L 267.5 220.792969 L 107.574219 220.792969 Z M 107.574219 201.828125 " clip-rule="nonzero"/></clipPath><clipPath id="0be9178e1f"><path d="M 187.5 201.828125 C 143.355469 201.828125 107.574219 206.074219 107.574219 211.308594 C 107.574219 216.546875 143.355469 220.792969 187.5 220.792969 C 231.644531 220.792969 267.425781 216.546875 267.425781 211.308594 C 267.425781 206.074219 231.644531 201.828125 187.5 201.828125 Z M 187.5 201.828125 " clip-rule="nonzero"/></clipPath></defs><g clip-path="url(#6ba860b26e)"><path fill="#4f4c4c" d="M 180.191406 56.875 C 180.140625 56.878906 180.046875 56.878906 179.996094 56.875 C 175.808594 56.835938 172.152344 62.332031 169.878906 68.320312 C 167.570312 74.417969 166.648438 80.96875 167.105469 85.429688 C 167.753906 91.449219 170.464844 94.699219 173.988281 97.304688 C 176.683594 99.160156 178.226562 104.027344 178.042969 109.054688 C 177.6875 118.945312 177.285156 128.769531 176.75 138.472656 C 178.625 136.050781 180.703125 133.664062 183.070312 131.339844 C 182.707031 123.964844 182.414062 116.53125 182.144531 109.054688 C 181.960938 104.027344 183.507812 99.160156 186.199219 97.304688 C 189.726562 94.699219 192.4375 91.449219 193.082031 85.429688 C 193.539062 80.96875 192.621094 74.417969 190.308594 68.320312 C 188.039062 62.332031 184.378906 56.835938 180.191406 56.875 Z M 231.433594 57.949219 C 231.367188 57.335938 230.851562 56.875 230.238281 56.875 C 229.570312 56.875 229.03125 57.417969 229.03125 58.082031 L 229.03125 87.296875 C 229.03125 87.902344 228.625 88.457031 228.027344 88.582031 C 227.210938 88.753906 226.484375 88.125 226.484375 87.339844 L 226.484375 58.082031 C 226.484375 57.417969 225.945312 56.875 225.277344 56.875 L 224.398438 56.875 C 223.730469 56.875 223.191406 57.417969 223.191406 58.082031 L 223.191406 87.296875 C 223.191406 87.902344 222.78125 88.457031 222.1875 88.582031 C 221.371094 88.753906 220.644531 88.125 220.644531 87.339844 L 220.644531 58.082031 C 220.644531 57.417969 220.101562 56.875 219.4375 56.875 L 218.554688 56.875 C 217.890625 56.875 217.351562 57.417969 217.351562 58.082031 L 217.351562 87.296875 C 217.351562 87.902344 216.941406 88.457031 216.347656 88.582031 C 215.53125 88.753906 214.804688 88.125 214.804688 87.339844 L 214.804688 58.082031 C 214.804688 57.417969 214.261719 56.875 213.597656 56.875 L 212.714844 56.875 C 212.050781 56.875 211.511719 57.417969 211.511719 58.082031 L 211.511719 87.296875 C 211.511719 87.902344 211.101562 88.457031 210.507812 88.582031 C 209.691406 88.753906 208.964844 88.125 208.964844 87.339844 L 208.964844 58.082031 C 208.964844 57.417969 208.425781 56.875 207.757812 56.875 C 207.144531 56.875 206.625 57.335938 206.558594 57.949219 C 205.9375 63.660156 205.75 82.910156 206.011719 85.429688 C 206.65625 91.449219 209.367188 94.699219 212.890625 97.304688 C 215.585938 99.160156 217.132812 104.027344 216.945312 109.054688 C 216.917969 109.859375 216.886719 110.65625 216.859375 111.457031 C 218.316406 110.816406 219.71875 110.175781 221.066406 109.539062 C 221.058594 109.378906 221.054688 109.21875 221.046875 109.054688 C 220.863281 104.027344 222.410156 99.160156 225.105469 97.304688 C 228.628906 94.699219 231.339844 91.449219 231.984375 85.429688 C 232.242188 82.910156 232.058594 63.660156 231.433594 57.949219 " fill-opacity="1" fill-rule="nonzero"/></g><path fill="#80cc28" d="M 236.84375 118.015625 C 236.84375 118.015625 218.964844 164.148438 154.136719 179.457031 C 173.179688 158.1875 171.871094 132.8125 212.359375 116.773438 C 233.054688 108.574219 244.953125 99.292969 244.953125 99.292969 C 244.953125 99.292969 244.414062 199.410156 174.339844 179.898438 C 174.339844 179.898438 219.78125 170.171875 236.84375 118.015625 " fill-opacity="1" fill-rule="nonzero"/><path fill="#40b93c" d="M 135.320312 91.527344 C 135.320312 91.527344 136.589844 122.199219 171.59375 144.171875 C 164.667969 127.867188 170.515625 113.226562 149.949219 95.699219 C 139.433594 86.742188 134.304688 78.910156 134.304688 78.910156 C 134.304688 78.910156 114.589844 137.808594 159.644531 140.386719 C 159.644531 140.386719 134.90625 125.574219 135.320312 91.527344 " fill-opacity="1" fill-rule="nonzero"/><g clip-path="url(#7c3c84d817)"><path fill="#393536" d="M 224.445312 200.132812 L 224.417969 200.105469 L 224.476562 200.160156 C 224.464844 200.15625 224.492188 200.171875 224.445312 200.132812 Z M 150.480469 200.148438 L 150.550781 200.082031 L 150.507812 200.125 C 150.460938 200.164062 150.488281 200.148438 150.480469 200.148438 Z M 266.628906 121.472656 C 266.386719 123.347656 266.167969 125.210938 265.953125 127.066406 C 265.648438 128.914062 265.261719 130.742188 264.953125 132.570312 C 264.578125 134.390625 264.0625 136.183594 263.625 137.976562 C 263.429688 138.878906 263.074219 139.742188 262.804688 140.625 C 262.507812 141.5 262.242188 142.378906 261.960938 143.257812 C 261.714844 144.140625 261.324219 144.980469 260.996094 145.839844 L 259.984375 148.398438 C 259.675781 149.257812 259.238281 150.070312 258.851562 150.898438 L 257.664062 153.371094 C 257.296875 154.207031 256.800781 154.980469 256.367188 155.777344 L 255.039062 158.164062 C 254.625 158.972656 254.089844 159.710938 253.601562 160.476562 L 252.117188 162.753906 C 251.648438 163.527344 251.070312 164.230469 250.539062 164.960938 L 248.921875 167.136719 C 248.410156 167.878906 247.769531 168.527344 247.195312 169.222656 L 245.441406 171.273438 C 244.25 172.621094 242.949219 173.871094 241.71875 175.171875 C 240.429688 176.417969 239.058594 177.578125 237.742188 178.789062 C 236.375 179.941406 234.941406 181.015625 233.554688 182.136719 C 232.105469 183.175781 230.613281 184.15625 229.152344 185.167969 L 224.570312 187.902344 L 219.820312 190.300781 L 210.390625 195.0625 L 220.496094 198.335938 L 220.589844 198.367188 C 219.816406 198.589844 219.003906 198.792969 218.191406 198.972656 C 216.28125 199.414062 214.285156 199.753906 212.273438 200.046875 C 208.238281 200.628906 204.105469 200.984375 199.964844 201.242188 C 197.890625 201.363281 195.8125 201.457031 193.730469 201.511719 C 191.628906 201.570312 189.625 201.585938 187.453125 201.589844 C 185.417969 201.59375 183.300781 201.570312 181.230469 201.515625 C 179.148438 201.460938 177.066406 201.367188 174.996094 201.242188 C 170.855469 200.984375 166.722656 200.640625 162.6875 200.054688 C 160.675781 199.761719 158.675781 199.421875 156.765625 198.980469 C 155.941406 198.796875 155.113281 198.59375 154.328125 198.367188 L 154.460938 198.324219 L 164.535156 195.0625 L 155.132812 190.3125 L 150.382812 187.910156 L 145.796875 185.179688 C 144.335938 184.167969 142.847656 183.183594 141.398438 182.144531 C 140.007812 181.027344 138.582031 179.949219 137.207031 178.796875 C 135.890625 177.59375 134.519531 176.433594 133.234375 175.179688 C 132 173.878906 130.699219 172.632812 129.507812 171.285156 L 127.75 169.230469 C 127.179688 168.535156 126.539062 167.886719 126.027344 167.144531 L 124.410156 164.96875 C 123.882812 164.238281 123.300781 163.535156 122.832031 162.761719 L 121.347656 160.484375 C 120.859375 159.71875 120.324219 158.976562 119.910156 158.167969 L 118.582031 155.785156 C 118.144531 154.984375 117.652344 154.210938 117.285156 153.375 L 116.101562 150.902344 C 115.710938 150.074219 115.273438 149.261719 114.96875 148.402344 L 113.953125 145.84375 C 113.625 144.984375 113.238281 144.144531 112.988281 143.257812 L 112.144531 140.628906 C 111.875 139.746094 111.519531 138.878906 111.324219 137.976562 C 110.890625 136.183594 110.378906 134.390625 110 132.574219 C 109.699219 130.753906 109.308594 128.933594 109.003906 127.078125 C 108.789062 125.210938 108.574219 123.339844 108.328125 121.472656 C 108.21875 123.355469 108.136719 125.234375 108.054688 127.113281 C 108.0625 128.996094 108.140625 130.902344 108.214844 132.816406 C 108.34375 134.714844 108.609375 136.597656 108.804688 138.503906 C 108.882812 139.457031 109.121094 140.382812 109.273438 141.328125 L 109.816406 144.152344 C 109.972656 145.101562 110.269531 146.011719 110.507812 146.945312 L 111.261719 149.726562 C 111.484375 150.667969 111.839844 151.5625 112.144531 152.476562 L 113.097656 155.210938 C 113.734375 157.039062 114.585938 158.777344 115.34375 160.5625 C 115.707031 161.464844 116.195312 162.304688 116.632812 163.167969 L 117.984375 165.75 C 118.40625 166.628906 118.96875 167.421875 119.46875 168.257812 L 121.015625 170.738281 C 121.503906 171.585938 122.125 172.339844 122.679688 173.140625 L 124.394531 175.515625 C 125.582031 177.070312 126.890625 178.523438 128.140625 180.035156 C 129.445312 181.496094 130.84375 182.867188 132.199219 184.292969 C 133.621094 185.648438 135.117188 186.921875 136.582031 188.238281 C 138.109375 189.476562 139.6875 190.660156 141.242188 191.871094 C 142.214844 192.546875 143.203125 193.199219 144.195312 193.851562 C 144.09375 193.949219 143.992188 194.054688 143.878906 194.179688 C 143.675781 194.414062 143.480469 194.628906 143.269531 194.949219 C 143.167969 195.097656 143.066406 195.246094 142.972656 195.398438 C 142.871094 195.582031 142.777344 195.773438 142.6875 195.960938 C 142.503906 196.316406 142.355469 196.804688 142.242188 197.261719 C 142.191406 197.492188 142.160156 197.757812 142.136719 198.007812 L 142.109375 198.390625 L 142.105469 198.484375 C 142.09375 198.402344 142.171875 199.613281 142.140625 199.109375 L 142.148438 199.160156 L 142.167969 199.359375 L 142.179688 199.457031 L 142.191406 199.519531 L 142.234375 199.746094 C 142.355469 200.335938 142.59375 201 142.84375 201.46875 C 143.023438 201.785156 143.222656 202.097656 143.433594 202.398438 C 143.640625 202.679688 143.824219 202.867188 144.03125 203.097656 C 144.128906 203.203125 144.238281 203.320312 144.335938 203.414062 L 144.609375 203.660156 C 144.796875 203.820312 144.992188 203.984375 145.175781 204.132812 L 145.699219 204.5 C 146.398438 204.980469 147.03125 205.320312 147.65625 205.628906 C 150.121094 206.808594 152.351562 207.445312 154.597656 208.035156 C 156.835938 208.59375 159.042969 209.015625 161.242188 209.378906 C 165.640625 210.089844 170.011719 210.585938 174.382812 210.863281 C 176.566406 211.007812 178.753906 211.117188 180.933594 211.191406 C 183.125 211.261719 185.273438 211.304688 187.503906 211.3125 C 189.601562 211.308594 191.863281 211.265625 194.027344 211.195312 C 196.207031 211.121094 198.394531 211.011719 200.578125 210.867188 C 204.949219 210.589844 209.320312 210.101562 213.71875 209.386719 C 215.921875 209.019531 218.125 208.601562 220.363281 208.039062 C 222.609375 207.460938 224.839844 206.816406 227.308594 205.636719 C 227.933594 205.328125 228.570312 204.988281 229.269531 204.507812 L 229.789062 204.140625 C 229.976562 203.992188 230.171875 203.828125 230.355469 203.667969 L 230.632812 203.421875 C 230.730469 203.328125 230.835938 203.210938 230.9375 203.105469 C 231.144531 202.875 231.324219 202.6875 231.535156 202.402344 C 231.746094 202.105469 231.945312 201.792969 232.125 201.476562 C 232.316406 201.101562 232.488281 200.660156 232.621094 200.242188 C 232.753906 199.804688 232.824219 199.261719 232.855469 198.769531 L 232.863281 198.582031 C 232.882812 198.929688 232.84375 197.996094 232.84375 198.085938 L 232.84375 198.0625 L 232.832031 197.964844 L 232.820312 197.863281 L 232.789062 197.632812 C 232.699219 197.011719 232.4375 196.230469 232.285156 195.957031 C 232.195312 195.765625 232.097656 195.578125 231.996094 195.394531 C 231.902344 195.242188 231.800781 195.089844 231.699219 194.941406 C 231.488281 194.621094 231.292969 194.40625 231.085938 194.171875 C 230.980469 194.046875 230.878906 193.949219 230.785156 193.855469 C 231.773438 193.207031 232.757812 192.558594 233.726562 191.882812 C 235.28125 190.671875 236.859375 189.488281 238.386719 188.25 C 239.851562 186.933594 241.347656 185.65625 242.769531 184.304688 C 244.125 182.882812 245.527344 181.507812 246.832031 180.046875 C 248.078125 178.535156 249.390625 177.078125 250.574219 175.523438 L 252.289062 173.152344 C 252.84375 172.347656 253.464844 171.59375 253.957031 170.75 L 255.5 168.265625 C 256.003906 167.429688 256.5625 166.636719 256.988281 165.757812 L 258.335938 163.171875 C 258.777344 162.308594 259.265625 161.46875 259.628906 160.566406 L 260.792969 157.90625 C 261.171875 157.015625 261.582031 156.144531 261.875 155.214844 L 262.824219 152.480469 C 263.128906 151.566406 263.484375 150.671875 263.707031 149.730469 L 264.460938 146.945312 C 264.699219 146.015625 264.996094 145.105469 265.152344 144.152344 C 265.507812 142.265625 265.921875 140.398438 266.160156 138.503906 C 266.355469 136.597656 266.621094 134.710938 266.75 132.816406 C 266.824219 130.914062 266.902344 129.019531 266.90625 127.128906 C 266.824219 125.234375 266.742188 123.347656 266.628906 121.472656 " fill-opacity="1" fill-rule="nonzero"/></g><g clip-path="url(#7c72378900)"><g clip-path="url(#0be9178e1f)"><path fill="#393536" d="M 107.574219 201.828125 L 267.425781 201.828125 L 267.425781 220.792969 L 107.574219 220.792969 Z M 107.574219 201.828125 " fill-opacity="1" fill-rule="nonzero"/></g></g><g fill="#3ca638" fill-opacity="1"><g transform="translate(82.288327, 282.917656)"><g><path d="M 22.265625 -37.125 C 25.765625 -37.125 28.910156 -36.59375 31.703125 -35.53125 C 34.503906 -34.46875 36.722656 -32.898438 38.359375 -30.828125 C 40.003906 -28.765625 40.828125 -26.25 40.828125 -23.28125 L 29.640625 -23.28125 C 29.640625 -24.800781 28.96875 -26.03125 27.625 -26.96875 C 26.28125 -27.90625 24.65625 -28.375 22.75 -28.375 C 19.988281 -28.375 17.898438 -27.640625 16.484375 -26.171875 C 15.078125 -24.703125 14.375 -22.625 14.375 -19.9375 L 14.375 -16.546875 C 14.375 -13.859375 15.078125 -11.78125 16.484375 -10.3125 C 17.898438 -8.84375 19.988281 -8.109375 22.75 -8.109375 C 24.65625 -8.109375 26.28125 -8.554688 27.625 -9.453125 C 28.96875 -10.359375 29.640625 -11.519531 29.640625 -12.9375 L 21.375 -12.9375 L 21.375 -20.359375 L 40.828125 -20.359375 L 40.828125 0 L 34.78125 0 L 33.625 -3.609375 C 30.300781 -0.773438 25.953125 0.640625 20.578125 0.640625 C 14.523438 0.640625 9.976562 -0.941406 6.9375 -4.109375 C 3.90625 -7.273438 2.390625 -11.988281 2.390625 -18.25 C 2.390625 -24.425781 4.113281 -29.113281 7.5625 -32.3125 C 11.007812 -35.519531 15.910156 -37.125 22.265625 -37.125 Z M 22.265625 -37.125 "/></g></g></g><g fill="#3ca638" fill-opacity="1"><g transform="translate(127.5194, 282.917656)"><g><path d="M 38.546875 -25.296875 C 38.546875 -23.066406 37.945312 -21.050781 36.75 -19.25 C 35.550781 -17.445312 33.800781 -16.117188 31.5 -15.265625 L 39.609375 0 L 26.46875 0 L 20 -13.3125 L 15.640625 -13.3125 L 15.640625 0 L 3.921875 0 L 3.921875 -36.484375 L 26.25 -36.484375 C 28.863281 -36.484375 31.097656 -35.976562 32.953125 -34.96875 C 34.816406 -33.96875 36.210938 -32.609375 37.140625 -30.890625 C 38.078125 -29.171875 38.546875 -27.304688 38.546875 -25.296875 Z M 26.625 -24.8125 C 26.625 -25.769531 26.304688 -26.566406 25.671875 -27.203125 C 25.035156 -27.835938 24.253906 -28.15625 23.328125 -28.15625 L 15.640625 -28.15625 L 15.640625 -21.421875 L 23.328125 -21.421875 C 24.253906 -21.421875 25.035156 -21.75 25.671875 -22.40625 C 26.304688 -23.0625 26.625 -23.863281 26.625 -24.8125 Z M 26.625 -24.8125 "/></g></g></g><g fill="#3ca638" fill-opacity="1"><g transform="translate(169.834059, 282.917656)"><g><path d="M 3.921875 -36.484375 L 35.484375 -36.484375 L 35.484375 -27.734375 L 15.640625 -27.734375 L 15.640625 -22.703125 L 32.609375 -22.703125 L 32.609375 -14.3125 L 15.640625 -14.3125 L 15.640625 -8.75 L 35.84375 -8.75 L 35.84375 0 L 3.921875 0 Z M 3.921875 -36.484375 "/></g></g></g><g fill="#3ca638" fill-opacity="1"><g transform="translate(209.179287, 282.917656)"><g><path d="M 3.921875 -36.484375 L 35.484375 -36.484375 L 35.484375 -27.734375 L 15.640625 -27.734375 L 15.640625 -22.703125 L 32.609375 -22.703125 L 32.609375 -14.3125 L 15.640625 -14.3125 L 15.640625 -8.75 L 35.84375 -8.75 L 35.84375 0 L 3.921875 0 Z M 3.921875 -36.484375 "/></g></g></g><g fill="#3ca638" fill-opacity="1"><g transform="translate(248.524522, 282.917656)"><g><path d="M 30.015625 0 L 14.6875 -17.71875 L 14.6875 0 L 3.921875 0 L 3.921875 -36.484375 L 14.15625 -36.484375 L 29.484375 -18.515625 L 29.484375 -36.484375 L 40.25 -36.484375 L 40.25 0 Z M 30.015625 0 "/></g></g></g><g fill="#393536" fill-opacity="1"><g transform="translate(148.949788, 312.473422)"><g><path d="M 15.15625 0 L 13.03125 0 L 11.484375 -4.609375 L 4.3125 -4.609375 L 2.734375 0 L 0.671875 0 L 6.546875 -16.828125 L 9.28125 -16.828125 Z M 7.75 -14.796875 L 4.859375 -6.28125 L 10.921875 -6.28125 L 8.03125 -14.796875 Z M 7.75 -14.796875 "/></g></g></g><g fill="#393536" fill-opacity="1"><g transform="translate(170.239624, 312.473422)"><g><path d="M 2.546875 0 L 2.546875 -16.828125 L 8.921875 -16.828125 C 9.960938 -16.828125 10.84375 -16.660156 11.5625 -16.328125 C 12.28125 -16.003906 12.820312 -15.535156 13.1875 -14.921875 C 13.550781 -14.316406 13.734375 -13.59375 13.734375 -12.75 C 13.734375 -12.019531 13.535156 -11.359375 13.140625 -10.765625 C 12.742188 -10.171875 12.175781 -9.710938 11.4375 -9.390625 L 11.4375 -9.140625 C 12.5625 -8.867188 13.410156 -8.367188 13.984375 -7.640625 C 14.566406 -6.910156 14.859375 -5.988281 14.859375 -4.875 C 14.859375 -3.3125 14.398438 -2.109375 13.484375 -1.265625 C 12.566406 -0.421875 11.207031 0 9.40625 0 Z M 8.828125 -9.765625 C 9.753906 -9.765625 10.472656 -10.003906 10.984375 -10.484375 C 11.503906 -10.972656 11.765625 -11.644531 11.765625 -12.5 C 11.765625 -13.394531 11.515625 -14.066406 11.015625 -14.515625 C 10.523438 -14.972656 9.796875 -15.203125 8.828125 -15.203125 L 4.53125 -15.203125 L 4.53125 -9.765625 Z M 9.25 -1.640625 C 11.644531 -1.640625 12.84375 -2.71875 12.84375 -4.875 C 12.84375 -7.039062 11.644531 -8.125 9.25 -8.125 L 4.53125 -8.125 L 4.53125 -1.640625 Z M 9.25 -1.640625 "/></g></g></g><g fill="#393536" fill-opacity="1"><g transform="translate(191.909392, 312.473422)"><g><path d="M 4.53125 -7.9375 L 4.53125 -1.640625 L 13.09375 -1.640625 L 13.09375 0 L 2.546875 0 L 2.546875 -16.828125 L 12.921875 -16.828125 L 12.921875 -15.203125 L 4.53125 -15.203125 L 4.53125 -9.5625 L 11.921875 -9.5625 L 11.921875 -7.9375 Z M 4.53125 -7.9375 "/></g></g></g><g fill="#393536" fill-opacity="1"><g transform="translate(211.598943, 312.473422)"><g><path d="M 7.359375 0.234375 C 6.296875 0.234375 5.34375 0.09375 4.5 -0.1875 C 3.664062 -0.476562 2.96875 -0.859375 2.40625 -1.328125 C 1.84375 -1.796875 1.425781 -2.304688 1.15625 -2.859375 L 2.234375 -4.171875 L 2.515625 -4.171875 C 3.566406 -2.421875 5.179688 -1.546875 7.359375 -1.546875 C 8.617188 -1.546875 9.554688 -1.804688 10.171875 -2.328125 C 10.796875 -2.859375 11.109375 -3.597656 11.109375 -4.546875 C 11.109375 -5.097656 11.003906 -5.566406 10.796875 -5.953125 C 10.597656 -6.335938 10.265625 -6.664062 9.796875 -6.9375 C 9.328125 -7.207031 8.691406 -7.441406 7.890625 -7.640625 L 5.921875 -8.125 C 4.453125 -8.476562 3.367188 -9.039062 2.671875 -9.8125 C 1.984375 -10.582031 1.640625 -11.5625 1.640625 -12.75 C 1.640625 -13.582031 1.851562 -14.328125 2.28125 -14.984375 C 2.707031 -15.640625 3.332031 -16.148438 4.15625 -16.515625 C 4.988281 -16.890625 5.984375 -17.078125 7.140625 -17.078125 C 8.398438 -17.078125 9.46875 -16.894531 10.34375 -16.53125 C 11.21875 -16.175781 11.914062 -15.644531 12.4375 -14.9375 L 11.46875 -13.625 L 11.171875 -13.625 C 10.691406 -14.21875 10.117188 -14.648438 9.453125 -14.921875 C 8.796875 -15.203125 8.023438 -15.34375 7.140625 -15.34375 C 5.972656 -15.34375 5.09375 -15.113281 4.5 -14.65625 C 3.90625 -14.207031 3.609375 -13.585938 3.609375 -12.796875 C 3.609375 -12.035156 3.828125 -11.425781 4.265625 -10.96875 C 4.703125 -10.519531 5.4375 -10.175781 6.46875 -9.9375 L 8.484375 -9.453125 C 10.117188 -9.066406 11.300781 -8.476562 12.03125 -7.6875 C 12.769531 -6.894531 13.140625 -5.878906 13.140625 -4.640625 C 13.140625 -3.691406 12.925781 -2.847656 12.5 -2.109375 C 12.070312 -1.378906 11.421875 -0.804688 10.546875 -0.390625 C 9.679688 0.0234375 8.617188 0.234375 7.359375 0.234375 Z M 7.359375 0.234375 "/></g></g></g></svg>