<svg xmlns="http://www.w3.org/2000/svg" xmlns:xlink="http://www.w3.org/1999/xlink" width="500" zoomAndPan="magnify" viewBox="0 0 375 374.999991" height="500" preserveAspectRatio="xMidYMid meet" version="1.0"><defs><g/><clipPath id="277bd8487c"><path d="M 179 63.589844 L 245 63.589844 L 245 146 L 179 146 Z M 179 63.589844 " clip-rule="nonzero"/></clipPath><clipPath id="22025c1806"><path d="M 120.121094 128 L 279.121094 128 L 279.121094 218.089844 L 120.121094 218.089844 Z M 120.121094 128 " clip-rule="nonzero"/></clipPath><clipPath id="a5323163c6"><path d="M 119.710938 208.574219 L 279.640625 208.574219 L 279.640625 227.535156 L 119.710938 227.535156 Z M 119.710938 208.574219 " clip-rule="nonzero"/></clipPath><clipPath id="dde1e0d8fb"><path d="M 199.640625 208.574219 C 155.496094 208.574219 119.710938 212.820312 119.710938 218.054688 C 119.710938 223.292969 155.496094 227.535156 199.640625 227.535156 C 243.78125 227.535156 279.566406 223.292969 279.566406 218.054688 C 279.566406 212.820312 243.78125 208.574219 199.640625 208.574219 Z M 199.640625 208.574219 " clip-rule="nonzero"/></clipPath></defs><g clip-path="url(#277bd8487c)"><path fill="#4f4c4c" d="M 192.332031 63.621094 C 192.28125 63.625 192.1875 63.625 192.136719 63.621094 C 187.949219 63.582031 184.292969 69.074219 182.019531 75.0625 C 179.710938 81.160156 178.789062 87.714844 179.246094 92.175781 C 179.894531 98.195312 182.601562 101.441406 186.128906 104.050781 C 188.824219 105.90625 190.367188 110.769531 190.183594 115.800781 C 189.828125 125.691406 189.425781 135.515625 188.890625 145.21875 C 190.765625 142.792969 192.84375 140.410156 195.210938 138.085938 C 194.847656 130.710938 194.554688 123.273438 194.285156 115.800781 C 194.101562 110.769531 195.648438 105.90625 198.339844 104.050781 C 201.867188 101.441406 204.578125 98.195312 205.222656 92.175781 C 205.679688 87.714844 204.757812 81.160156 202.449219 75.0625 C 200.179688 69.074219 196.519531 63.582031 192.332031 63.621094 Z M 243.574219 64.691406 C 243.507812 64.082031 242.992188 63.621094 242.378906 63.621094 C 241.710938 63.621094 241.171875 64.160156 241.171875 64.828125 L 241.171875 94.039062 C 241.171875 94.648438 240.761719 95.203125 240.167969 95.328125 C 239.351562 95.496094 238.625 94.871094 238.625 94.082031 L 238.625 64.828125 C 238.625 64.160156 238.085938 63.621094 237.417969 63.621094 L 236.539062 63.621094 C 235.871094 63.621094 235.328125 64.160156 235.328125 64.828125 L 235.328125 94.039062 C 235.328125 94.648438 234.921875 95.203125 234.328125 95.328125 C 233.511719 95.496094 232.785156 94.871094 232.785156 94.082031 L 232.785156 64.828125 C 232.785156 64.160156 232.242188 63.621094 231.578125 63.621094 L 230.695312 63.621094 C 230.03125 63.621094 229.492188 64.160156 229.492188 64.828125 L 229.492188 94.039062 C 229.492188 94.648438 229.082031 95.203125 228.488281 95.328125 C 227.667969 95.496094 226.945312 94.871094 226.945312 94.082031 L 226.945312 64.828125 C 226.945312 64.160156 226.402344 63.621094 225.738281 63.621094 L 224.855469 63.621094 C 224.191406 63.621094 223.652344 64.160156 223.652344 64.828125 L 223.652344 94.039062 C 223.652344 94.648438 223.242188 95.203125 222.648438 95.328125 C 221.832031 95.496094 221.105469 94.871094 221.105469 94.082031 L 221.105469 64.828125 C 221.105469 64.160156 220.5625 63.621094 219.898438 63.621094 C 219.285156 63.621094 218.765625 64.082031 218.699219 64.691406 C 218.078125 70.402344 217.890625 89.652344 218.152344 92.175781 C 218.796875 98.195312 221.507812 101.441406 225.03125 104.050781 C 227.726562 105.90625 229.269531 110.769531 229.085938 115.800781 C 229.058594 116.601562 229.027344 117.402344 228.996094 118.199219 C 230.457031 117.5625 231.859375 116.921875 233.207031 116.285156 C 233.199219 116.121094 233.195312 115.960938 233.1875 115.800781 C 233.003906 110.769531 234.550781 105.90625 237.246094 104.050781 C 240.769531 101.441406 243.476562 98.195312 244.125 92.175781 C 244.382812 89.652344 244.199219 70.402344 243.574219 64.691406 " fill-opacity="1" fill-rule="nonzero"/></g><path fill="#80cc28" d="M 248.980469 124.757812 C 248.980469 124.757812 231.105469 170.894531 166.277344 186.203125 C 185.320312 164.933594 184.011719 139.554688 224.5 123.515625 C 245.195312 115.316406 257.09375 106.035156 257.09375 106.035156 C 257.09375 106.035156 256.554688 206.152344 186.480469 186.644531 C 186.480469 186.644531 231.917969 176.917969 248.980469 124.757812 " fill-opacity="1" fill-rule="nonzero"/><path fill="#40b93c" d="M 147.460938 98.269531 C 147.460938 98.269531 148.730469 128.945312 183.734375 150.914062 C 176.808594 134.613281 182.65625 119.972656 162.089844 102.445312 C 151.574219 93.484375 146.445312 85.652344 146.445312 85.652344 C 146.445312 85.652344 126.730469 144.554688 171.785156 147.128906 C 171.785156 147.128906 147.046875 132.316406 147.460938 98.269531 " fill-opacity="1" fill-rule="nonzero"/><g clip-path="url(#22025c1806)"><path fill="#393536" d="M 236.582031 206.878906 L 236.558594 206.847656 L 236.617188 206.902344 C 236.605469 206.902344 236.632812 206.914062 236.582031 206.878906 Z M 162.617188 206.894531 L 162.6875 206.828125 L 162.648438 206.871094 C 162.601562 206.910156 162.628906 206.894531 162.617188 206.894531 Z M 278.769531 128.214844 C 278.527344 130.089844 278.308594 131.953125 278.09375 133.808594 C 277.789062 135.65625 277.398438 137.488281 277.09375 139.316406 C 276.71875 141.136719 276.203125 142.925781 275.765625 144.71875 C 275.570312 145.621094 275.214844 146.488281 274.945312 147.371094 C 274.648438 148.242188 274.382812 149.125 274.101562 150 C 273.855469 150.886719 273.464844 151.726562 273.136719 152.585938 L 272.125 155.144531 C 271.816406 156.003906 271.378906 156.816406 270.988281 157.644531 L 269.804688 160.117188 C 269.4375 160.949219 268.941406 161.722656 268.507812 162.523438 L 267.179688 164.90625 C 266.765625 165.714844 266.230469 166.457031 265.742188 167.222656 L 264.257812 169.5 C 263.789062 170.273438 263.210938 170.976562 262.679688 171.707031 L 261.0625 173.878906 C 260.546875 174.625 259.910156 175.273438 259.335938 175.96875 L 257.582031 178.019531 C 256.390625 179.367188 255.089844 180.613281 253.855469 181.914062 C 252.570312 183.164062 251.199219 184.324219 249.882812 185.53125 C 248.515625 186.683594 247.082031 187.761719 245.695312 188.878906 C 244.242188 189.917969 242.753906 190.898438 241.292969 191.914062 L 236.710938 194.644531 L 231.960938 197.046875 L 222.53125 201.808594 L 232.636719 205.082031 L 232.730469 205.113281 C 231.957031 205.332031 231.144531 205.535156 230.332031 205.71875 C 228.421875 206.15625 226.425781 206.5 224.414062 206.792969 C 220.378906 207.375 216.246094 207.726562 212.105469 207.988281 C 210.03125 208.109375 207.953125 208.203125 205.871094 208.257812 C 203.769531 208.3125 201.761719 208.332031 199.59375 208.335938 C 197.558594 208.339844 195.441406 208.3125 193.371094 208.261719 C 191.289062 208.203125 189.207031 208.113281 187.136719 207.988281 C 182.996094 207.726562 178.863281 207.386719 174.828125 206.800781 C 172.816406 206.507812 170.816406 206.164062 168.90625 205.726562 C 168.082031 205.542969 167.253906 205.335938 166.46875 205.113281 L 166.601562 205.070312 L 176.675781 201.804688 L 167.273438 197.054688 L 162.523438 194.65625 L 157.9375 191.925781 C 156.476562 190.914062 154.988281 189.929688 153.539062 188.890625 C 152.148438 187.773438 150.722656 186.691406 149.347656 185.542969 C 148.03125 184.335938 146.660156 183.175781 145.375 181.925781 C 144.140625 180.625 142.839844 179.375 141.648438 178.027344 L 139.890625 175.976562 C 139.320312 175.28125 138.679688 174.632812 138.167969 173.886719 L 136.550781 171.714844 C 136.023438 170.980469 135.441406 170.28125 134.96875 169.507812 L 133.488281 167.226562 C 133 166.460938 132.464844 165.71875 132.046875 164.914062 L 130.722656 162.527344 C 130.285156 161.730469 129.792969 160.957031 129.425781 160.121094 L 128.242188 157.648438 C 127.851562 156.820312 127.414062 156.007812 127.109375 155.144531 L 126.09375 152.589844 C 125.765625 151.730469 125.378906 150.886719 125.128906 150.003906 L 124.285156 147.371094 C 124.015625 146.488281 123.660156 145.625 123.464844 144.722656 C 123.03125 142.929688 122.519531 141.132812 122.140625 139.320312 C 121.839844 137.5 121.449219 135.679688 121.144531 133.824219 C 120.929688 131.953125 120.714844 130.085938 120.46875 128.214844 C 120.359375 130.097656 120.277344 131.976562 120.195312 133.859375 C 120.199219 135.742188 120.277344 137.648438 120.355469 139.558594 C 120.484375 141.460938 120.75 143.339844 120.945312 145.246094 C 121.023438 146.203125 121.261719 147.128906 121.414062 148.074219 L 121.957031 150.894531 C 122.113281 151.847656 122.410156 152.757812 122.644531 153.6875 L 123.402344 156.472656 C 123.625 157.414062 123.980469 158.304688 124.285156 159.222656 L 125.238281 161.957031 C 125.875 163.785156 126.726562 165.519531 127.484375 167.304688 C 127.847656 168.210938 128.335938 169.046875 128.773438 169.910156 L 130.125 172.496094 C 130.546875 173.375 131.109375 174.167969 131.609375 175.003906 L 133.152344 177.484375 C 133.644531 178.332031 134.265625 179.082031 134.820312 179.886719 L 136.535156 182.261719 C 137.722656 183.816406 139.03125 185.269531 140.28125 186.78125 C 141.582031 188.242188 142.984375 189.613281 144.339844 191.035156 C 145.757812 192.390625 147.257812 193.664062 148.722656 194.984375 C 150.25 196.222656 151.824219 197.402344 153.382812 198.617188 C 154.355469 199.292969 155.34375 199.945312 156.335938 200.597656 C 156.234375 200.691406 156.132812 200.796875 156.019531 200.925781 C 155.816406 201.15625 155.621094 201.371094 155.410156 201.691406 C 155.304688 201.839844 155.207031 201.992188 155.113281 202.144531 C 155.011719 202.324219 154.917969 202.515625 154.828125 202.707031 C 154.644531 203.058594 154.496094 203.550781 154.382812 204.007812 C 154.328125 204.234375 154.300781 204.503906 154.277344 204.75 L 154.25 205.136719 L 154.246094 205.230469 C 154.234375 205.148438 154.3125 206.355469 154.28125 205.851562 L 154.289062 205.902344 L 154.308594 206.101562 L 154.320312 206.203125 L 154.328125 206.265625 L 154.375 206.492188 C 154.496094 207.078125 154.734375 207.746094 154.984375 208.214844 C 155.164062 208.53125 155.363281 208.84375 155.574219 209.140625 C 155.78125 209.425781 155.964844 209.609375 156.171875 209.84375 C 156.269531 209.949219 156.378906 210.066406 156.476562 210.15625 L 156.75 210.402344 C 156.9375 210.5625 157.132812 210.730469 157.316406 210.878906 L 157.839844 211.246094 C 158.539062 211.726562 159.171875 212.0625 159.796875 212.375 C 162.261719 213.554688 164.492188 214.1875 166.738281 214.78125 C 168.976562 215.339844 171.179688 215.757812 173.382812 216.125 C 177.78125 216.835938 182.152344 217.332031 186.523438 217.609375 C 188.707031 217.753906 190.890625 217.863281 193.074219 217.9375 C 195.265625 218.007812 197.414062 218.046875 199.644531 218.058594 C 201.742188 218.054688 204.003906 218.011719 206.167969 217.941406 C 208.347656 217.867188 210.53125 217.757812 212.71875 217.613281 C 217.089844 217.332031 221.460938 216.847656 225.859375 216.128906 C 228.0625 215.765625 230.265625 215.347656 232.503906 214.785156 C 234.75 214.203125 236.980469 213.5625 239.449219 212.382812 C 240.070312 212.070312 240.710938 211.734375 241.410156 211.253906 L 241.929688 210.886719 C 242.117188 210.738281 242.3125 210.570312 242.496094 210.414062 L 242.773438 210.164062 C 242.871094 210.070312 242.976562 209.957031 243.078125 209.851562 C 243.285156 209.617188 243.464844 209.433594 243.675781 209.148438 C 243.886719 208.847656 244.085938 208.539062 244.265625 208.21875 C 244.457031 207.847656 244.628906 207.40625 244.761719 206.984375 C 244.894531 206.550781 244.964844 206.007812 244.996094 205.515625 L 245.003906 205.324219 C 245.023438 205.671875 244.984375 204.738281 244.984375 204.832031 L 244.984375 204.808594 L 244.972656 204.707031 L 244.960938 204.609375 L 244.929688 204.375 C 244.839844 203.753906 244.578125 202.976562 244.425781 202.703125 C 244.335938 202.511719 244.238281 202.320312 244.136719 202.140625 C 244.042969 201.988281 243.941406 201.835938 243.839844 201.6875 C 243.628906 201.367188 243.433594 201.152344 243.226562 200.917969 C 243.121094 200.792969 243.019531 200.691406 242.921875 200.597656 C 243.914062 199.949219 244.898438 199.300781 245.867188 198.628906 C 247.421875 197.414062 249 196.234375 250.527344 194.992188 C 251.992188 193.675781 253.488281 192.398438 254.910156 191.050781 C 256.265625 189.625 257.667969 188.25 258.972656 186.792969 C 260.21875 185.277344 261.53125 183.824219 262.714844 182.269531 L 264.429688 179.894531 C 264.984375 179.089844 265.605469 178.339844 266.097656 177.492188 L 267.640625 175.011719 C 268.144531 174.175781 268.703125 173.378906 269.128906 172.5 L 270.476562 169.917969 C 270.917969 169.054688 271.402344 168.214844 271.769531 167.3125 L 272.933594 164.652344 C 273.3125 163.761719 273.722656 162.886719 274.015625 161.960938 L 274.964844 159.226562 C 275.269531 158.308594 275.625 157.417969 275.847656 156.476562 L 276.601562 153.691406 C 276.839844 152.757812 277.136719 151.847656 277.292969 150.898438 C 277.648438 149.011719 278.0625 147.140625 278.300781 145.246094 C 278.496094 143.34375 278.761719 141.457031 278.890625 139.5625 C 278.964844 137.660156 279.042969 135.761719 279.046875 133.875 C 278.964844 131.976562 278.882812 130.09375 278.769531 128.214844 " fill-opacity="1" fill-rule="nonzero"/></g><g clip-path="url(#a5323163c6)"><g clip-path="url(#dde1e0d8fb)"><path fill="#393536" d="M 119.710938 208.574219 L 279.566406 208.574219 L 279.566406 227.535156 L 119.710938 227.535156 Z M 119.710938 208.574219 " fill-opacity="1" fill-rule="nonzero"/></g></g><g fill="#3ca638" fill-opacity="1"><g transform="translate(107.997953, 264.638144)"><g><path d="M 20.15625 -33.59375 C 23.320312 -33.59375 26.171875 -33.113281 28.703125 -32.15625 C 31.234375 -31.195312 33.238281 -29.78125 34.71875 -27.90625 C 36.207031 -26.039062 36.953125 -23.765625 36.953125 -21.078125 L 26.828125 -21.078125 C 26.828125 -22.453125 26.21875 -23.5625 25 -24.40625 C 23.789062 -25.257812 22.320312 -25.6875 20.59375 -25.6875 C 18.09375 -25.6875 16.203125 -25.019531 14.921875 -23.6875 C 13.648438 -22.363281 13.015625 -20.484375 13.015625 -18.046875 L 13.015625 -14.96875 C 13.015625 -12.539062 13.648438 -10.660156 14.921875 -9.328125 C 16.203125 -8.003906 18.09375 -7.34375 20.59375 -7.34375 C 22.320312 -7.34375 23.789062 -7.75 25 -8.5625 C 26.21875 -9.382812 26.828125 -10.4375 26.828125 -11.71875 L 19.34375 -11.71875 L 19.34375 -18.4375 L 36.953125 -18.4375 L 36.953125 0 L 31.484375 0 L 30.4375 -3.265625 C 27.425781 -0.703125 23.488281 0.578125 18.625 0.578125 C 13.15625 0.578125 9.039062 -0.851562 6.28125 -3.71875 C 3.53125 -6.582031 2.15625 -10.847656 2.15625 -16.515625 C 2.15625 -22.109375 3.710938 -26.351562 6.828125 -29.25 C 9.953125 -32.144531 14.394531 -33.59375 20.15625 -33.59375 Z M 20.15625 -33.59375 "/></g></g></g><g fill="#3ca638" fill-opacity="1"><g transform="translate(148.932973, 264.638144)"><g><path d="M 34.890625 -22.890625 C 34.890625 -20.878906 34.34375 -19.054688 33.25 -17.421875 C 32.164062 -15.785156 30.585938 -14.585938 28.515625 -13.828125 L 35.859375 0 L 23.953125 0 L 18.09375 -12.046875 L 14.15625 -12.046875 L 14.15625 0 L 3.546875 0 L 3.546875 -33.03125 L 23.765625 -33.03125 C 26.128906 -33.03125 28.148438 -32.570312 29.828125 -31.65625 C 31.515625 -30.738281 32.78125 -29.503906 33.625 -27.953125 C 34.46875 -26.398438 34.890625 -24.710938 34.890625 -22.890625 Z M 24.09375 -22.46875 C 24.09375 -23.332031 23.804688 -24.050781 23.234375 -24.625 C 22.660156 -25.195312 21.957031 -25.484375 21.125 -25.484375 L 14.15625 -25.484375 L 14.15625 -19.390625 L 21.125 -19.390625 C 21.957031 -19.390625 22.660156 -19.6875 23.234375 -20.28125 C 23.804688 -20.875 24.09375 -21.601562 24.09375 -22.46875 Z M 24.09375 -22.46875 "/></g></g></g><g fill="#3ca638" fill-opacity="1"><g transform="translate(187.228581, 264.638144)"><g><path d="M 3.546875 -33.03125 L 32.109375 -33.03125 L 32.109375 -25.109375 L 14.15625 -25.109375 L 14.15625 -20.546875 L 29.515625 -20.546875 L 29.515625 -12.953125 L 14.15625 -12.953125 L 14.15625 -7.921875 L 32.453125 -7.921875 L 32.453125 0 L 3.546875 0 Z M 3.546875 -33.03125 "/></g></g></g><g fill="#3ca638" fill-opacity="1"><g transform="translate(222.836793, 264.638144)"><g><path d="M 3.546875 -33.03125 L 32.109375 -33.03125 L 32.109375 -25.109375 L 14.15625 -25.109375 L 14.15625 -20.546875 L 29.515625 -20.546875 L 29.515625 -12.953125 L 14.15625 -12.953125 L 14.15625 -7.921875 L 32.453125 -7.921875 L 32.453125 0 L 3.546875 0 Z M 3.546875 -33.03125 "/></g></g></g><g fill="#3ca638" fill-opacity="1"><g transform="translate(258.445013, 264.638144)"><g><path d="M 27.171875 0 L 13.296875 -16.03125 L 13.296875 0 L 3.546875 0 L 3.546875 -33.03125 L 12.8125 -33.03125 L 26.6875 -16.75 L 26.6875 -33.03125 L 36.4375 -33.03125 L 36.4375 0 Z M 27.171875 0 "/></g></g></g><g fill="#393536" fill-opacity="1"><g transform="translate(171.998284, 284.747295)"><g><path d="M 0.726562 0 L 2.71875 0 L 3.960938 -3.535156 L 11.109375 -3.535156 L 12.355469 0 L 14.3125 0 L 8.242188 -16.269531 L 6.839844 -16.269531 Z M 4.570312 -5.203125 L 7.554688 -13.585938 L 10.488281 -5.203125 Z M 4.570312 -5.203125 "/></g></g></g><g fill="#393536" fill-opacity="1"><g transform="translate(192.505094, 284.747295)"><g><path d="M 2.441406 0 L 7.785156 0 C 10.351562 0 12.953125 -1.09375 12.953125 -4.339844 C 12.953125 -6.609375 11.734375 -7.863281 10.050781 -8.613281 C 11.261719 -9.316406 12.160156 -10.417969 12.160156 -12.238281 C 12.160156 -15.199219 9.542969 -16.269531 6.941406 -16.269531 L 2.441406 -16.269531 Z M 4.226562 -9.105469 L 4.226562 -14.632812 L 6.964844 -14.632812 C 8.738281 -14.632812 10.257812 -14.105469 10.257812 -11.996094 C 10.257812 -9.960938 8.773438 -9.105469 6.941406 -9.105469 Z M 4.226562 -1.691406 L 4.226562 -7.472656 L 7.863281 -7.472656 C 9.578125 -7.472656 11.15625 -6.78125 11.15625 -4.445312 C 11.15625 -2.269531 9.566406 -1.691406 7.828125 -1.691406 Z M 4.226562 -1.691406 "/></g></g></g><g fill="#393536" fill-opacity="1"><g transform="translate(212.2866, 284.747295)"><g><path d="M 2.441406 0 L 12.976562 0 L 12.976562 -1.667969 L 4.273438 -1.667969 L 4.273438 -7.378906 L 11.835938 -7.378906 L 11.835938 -8.910156 L 4.273438 -8.910156 L 4.273438 -14.691406 L 12.976562 -14.691406 L 12.976562 -16.269531 L 2.441406 -16.269531 Z M 2.441406 0 "/></g></g></g><g fill="#393536" fill-opacity="1"><g transform="translate(232.022055, 284.747295)"><g><path d="M 6.574219 0.183594 C 9.464844 0.183594 11.652344 -1.636719 11.652344 -4.492188 C 11.652344 -9.742188 3.8125 -8.898438 3.8125 -12.550781 C 3.8125 -14.035156 5.066406 -14.933594 6.425781 -14.933594 C 7.726562 -14.933594 8.933594 -14.335938 9.589844 -13.054688 L 10.960938 -13.976562 C 9.949219 -15.703125 8.359375 -16.511719 6.449219 -16.511719 C 4.03125 -16.511719 2.039062 -14.886719 2.039062 -12.390625 C 2.039062 -7.4375 9.878906 -8.554688 9.878906 -4.351562 C 9.878906 -2.382812 8.53125 -1.4375 6.585938 -1.4375 C 4.652344 -1.4375 2.890625 -2.476562 2.660156 -4.675781 L 0.957031 -4.167969 C 1.417969 -1.253906 3.925781 0.183594 6.574219 0.183594 Z M 6.574219 0.183594 "/></g></g></g></svg>