<svg xmlns="http://www.w3.org/2000/svg" xmlns:xlink="http://www.w3.org/1999/xlink" width="500" zoomAndPan="magnify" viewBox="0 0 375 374.999991" height="500" preserveAspectRatio="xMidYMid meet" version="1.0"><defs><g/><clipPath id="ae6ed29309"><path d="M 98 243 L 279 243 L 279 299.867188 L 98 299.867188 Z M 98 243 " clip-rule="nonzero"/></clipPath><clipPath id="9862425344"><path d="M 73.625 167 L 82 167 L 82 172 L 73.625 172 Z M 73.625 167 " clip-rule="nonzero"/></clipPath><clipPath id="77797143b0"><path d="M 187 74.867188 L 192 74.867188 L 192 82 L 187 82 Z M 187 74.867188 " clip-rule="nonzero"/></clipPath><clipPath id="9c194f6be8"><path d="M 296 164 L 301.625 164 L 301.625 167 L 296 167 Z M 296 164 " clip-rule="nonzero"/></clipPath></defs><path fill="#009b4c" d="M 150.039062 199.085938 Z M 157.085938 133.460938 C 155.914062 134.632812 152.390625 135.804688 151.214844 135.804688 C 150.039062 135.804688 150.039062 135.804688 148.867188 135.804688 C 145.339844 136.976562 144.167969 136.976562 141.816406 135.804688 C 140.644531 135.804688 135.945312 134.632812 135.945312 134.632812 C 133.597656 133.460938 128.898438 133.460938 126.550781 133.460938 C 124.199219 133.460938 123.023438 133.460938 121.851562 134.632812 C 120.675781 134.632812 119.5 134.632812 118.328125 134.632812 C 117.152344 135.804688 124.199219 134.632812 125.375 134.632812 C 126.550781 134.632812 127.722656 134.632812 130.074219 134.632812 C 131.246094 134.632812 134.769531 134.632812 135.945312 135.804688 C 137.121094 135.804688 138.292969 135.804688 139.46875 136.976562 C 141.816406 136.976562 144.167969 138.148438 146.515625 138.148438 C 146.515625 139.320312 144.167969 139.320312 144.167969 140.492188 C 141.816406 142.835938 138.292969 145.179688 135.945312 146.351562 C 134.769531 147.523438 133.597656 149.867188 131.246094 149.867188 C 131.246094 149.867188 128.898438 151.039062 128.898438 151.039062 C 130.074219 151.039062 132.421875 149.867188 133.597656 149.867188 C 134.769531 148.695312 139.46875 145.179688 141.816406 145.179688 C 142.992188 144.007812 146.515625 140.492188 148.867188 139.320312 C 150.039062 139.320312 152.390625 138.148438 152.390625 138.148438 C 153.5625 136.976562 152.390625 136.976562 153.5625 136.976562 C 153.5625 136.976562 158.261719 136.976562 158.261719 136.976562 C 159.4375 135.804688 159.4375 135.804688 160.609375 135.804688 C 161.785156 135.804688 162.960938 136.976562 164.132812 138.148438 C 165.308594 138.148438 167.65625 140.492188 168.832031 141.664062 C 170.007812 142.835938 171.183594 144.007812 172.355469 145.179688 C 173.53125 146.351562 175.878906 151.039062 175.878906 152.210938 C 177.054688 154.554688 180.578125 159.242188 180.578125 160.414062 C 180.578125 161.585938 179.402344 161.585938 179.402344 161.585938 C 179.402344 162.757812 175.878906 162.757812 175.878906 162.757812 C 174.707031 161.585938 164.132812 155.726562 162.960938 155.726562 C 161.785156 154.554688 159.4375 154.554688 159.4375 153.382812 C 157.085938 153.382812 152.390625 153.382812 151.214844 154.554688 C 150.039062 154.554688 148.867188 154.554688 148.867188 155.726562 C 137.121094 159.242188 114.804688 156.898438 104.234375 154.554688 C 104.234375 154.554688 98.359375 153.382812 98.359375 153.382812 C 96.011719 153.382812 94.835938 153.382812 93.660156 152.210938 C 92.488281 152.210938 99.535156 154.554688 100.707031 155.726562 C 101.882812 155.726562 104.234375 155.726562 104.234375 155.726562 C 105.40625 156.898438 105.40625 156.898438 106.582031 156.898438 C 108.929688 158.070312 113.628906 158.070312 117.152344 159.242188 C 117.152344 159.242188 117.152344 159.242188 118.328125 159.242188 C 119.5 160.414062 120.675781 160.414062 121.851562 160.414062 C 123.023438 160.414062 120.675781 161.585938 119.5 161.585938 C 119.5 161.585938 115.976562 162.757812 114.804688 163.929688 C 113.628906 163.929688 110.105469 165.101562 108.929688 165.101562 C 107.757812 165.101562 104.234375 165.101562 103.058594 166.273438 C 101.882812 166.273438 99.535156 166.273438 98.359375 166.273438 C 98.359375 167.445312 85.441406 169.789062 85.441406 169.789062 C 85.441406 169.789062 79.566406 169.789062 79.566406 169.789062 C 78.390625 169.789062 93.660156 169.789062 96.011719 168.617188 C 97.183594 167.445312 96.011719 168.617188 96.011719 168.617188 C 96.011719 168.617188 94.835938 169.789062 94.835938 169.789062 C 93.660156 170.960938 88.964844 172.132812 88.964844 172.132812 L 86.613281 173.304688 C 86.613281 173.304688 93.660156 170.960938 94.835938 170.960938 C 97.183594 169.789062 98.359375 168.617188 99.535156 167.445312 L 100.707031 167.445312 C 101.882812 167.445312 105.40625 167.445312 106.582031 167.445312 C 107.757812 167.445312 110.105469 167.445312 111.28125 167.445312 C 113.628906 166.273438 117.152344 165.101562 119.5 165.101562 C 121.851562 163.929688 120.675781 163.929688 119.5 165.101562 C 117.152344 167.445312 114.804688 167.445312 112.453125 168.617188 C 110.105469 169.789062 107.757812 169.789062 105.40625 169.789062 C 104.234375 170.960938 108.929688 169.789062 108.929688 169.789062 C 110.105469 169.789062 112.453125 168.617188 113.628906 168.617188 C 117.152344 167.445312 115.976562 167.445312 114.804688 168.617188 C 115.976562 168.617188 118.328125 167.445312 118.328125 167.445312 C 118.328125 167.445312 123.023438 163.929688 123.023438 163.929688 C 125.375 162.757812 126.550781 162.757812 127.722656 161.585938 C 128.898438 161.585938 133.597656 160.414062 133.597656 160.414062 C 135.945312 159.242188 137.121094 159.242188 139.46875 159.242188 C 140.644531 159.242188 141.816406 159.242188 141.816406 160.414062 C 141.816406 160.414062 141.816406 160.414062 141.816406 161.585938 C 141.816406 161.585938 137.121094 165.101562 135.945312 165.101562 C 135.945312 166.273438 134.769531 167.445312 134.769531 167.445312 C 134.769531 167.445312 135.945312 166.273438 135.945312 166.273438 C 138.292969 163.929688 140.644531 162.757812 142.992188 161.585938 C 144.167969 160.414062 144.167969 160.414062 145.339844 160.414062 C 146.515625 160.414062 148.867188 160.414062 148.867188 159.242188 C 150.039062 159.242188 150.039062 159.242188 150.039062 159.242188 C 151.214844 158.070312 153.5625 159.242188 154.738281 159.242188 C 155.914062 159.242188 158.261719 159.242188 158.261719 159.242188 C 159.4375 159.242188 161.785156 160.414062 161.785156 160.414062 C 162.960938 161.585938 166.484375 163.929688 167.65625 165.101562 C 168.832031 165.101562 171.183594 167.445312 172.355469 167.445312 C 172.355469 167.445312 172.355469 167.445312 172.355469 168.617188 C 175.878906 169.789062 174.707031 168.617188 178.230469 172.132812 C 180.578125 173.304688 180.578125 173.304688 180.578125 176.820312 C 180.578125 177.992188 180.578125 180.335938 180.578125 181.507812 C 180.578125 181.507812 181.753906 182.679688 181.753906 183.851562 C 180.578125 183.851562 180.578125 183.851562 180.578125 183.851562 C 177.054688 194.398438 175.878906 188.539062 167.65625 192.054688 C 161.785156 194.398438 147.691406 192.054688 140.644531 193.226562 C 132.421875 195.570312 119.5 194.398438 110.105469 194.398438 C 104.234375 193.226562 97.183594 194.398438 91.3125 194.398438 C 90.136719 194.398438 77.21875 197.914062 84.265625 196.742188 C 93.660156 195.570312 93.660156 196.742188 100.707031 196.742188 C 106.582031 197.914062 119.5 196.742188 124.199219 199.085938 C 126.550781 200.257812 145.339844 200.257812 150.039062 199.085938 C 153.5625 200.257812 165.308594 199.085938 167.65625 197.914062 C 173.53125 197.914062 174.707031 196.742188 179.402344 196.742188 C 187.625 197.914062 197.023438 197.914062 205.242188 199.085938 C 208.765625 200.257812 221.6875 200.257812 224.035156 199.085938 C 225.210938 199.085938 233.433594 196.742188 234.605469 197.914062 C 240.480469 199.085938 261.621094 199.085938 267.496094 199.085938 C 269.84375 199.085938 272.191406 197.914062 274.542969 197.914062 C 276.890625 197.914062 281.589844 196.742188 283.9375 196.742188 C 286.289062 196.742188 287.460938 195.570312 287.460938 195.570312 C 285.113281 195.570312 280.414062 194.398438 279.238281 194.398438 C 275.714844 195.570312 263.972656 195.570312 260.445312 192.054688 C 259.273438 190.882812 231.082031 193.226562 229.910156 193.226562 C 228.734375 194.398438 222.863281 194.398438 221.6875 193.226562 C 220.511719 193.226562 214.640625 192.054688 213.464844 193.226562 C 209.941406 193.226562 209.941406 192.054688 206.417969 192.054688 C 205.242188 192.054688 205.242188 192.054688 205.242188 192.054688 C 202.894531 190.882812 200.546875 190.882812 199.371094 190.882812 C 195.847656 189.710938 192.324219 185.023438 192.324219 181.507812 C 192.324219 181.507812 192.324219 175.648438 192.324219 175.648438 C 191.148438 173.304688 192.324219 172.132812 194.671875 170.960938 C 195.847656 169.789062 198.195312 169.789062 200.546875 169.789062 C 207.59375 169.789062 216.988281 173.304688 218.164062 174.476562 C 218.164062 174.476562 224.035156 175.648438 224.035156 175.648438 C 226.386719 175.648438 227.558594 176.820312 228.734375 176.820312 C 229.910156 176.820312 222.863281 174.476562 221.6875 173.304688 C 220.511719 173.304688 219.339844 173.304688 218.164062 172.132812 C 218.164062 172.132812 216.988281 172.132812 216.988281 172.132812 C 214.640625 169.789062 209.941406 169.789062 207.59375 167.445312 C 207.59375 167.445312 206.417969 167.445312 206.417969 167.445312 C 205.242188 167.445312 204.070312 166.273438 202.894531 166.273438 C 201.71875 166.273438 204.070312 165.101562 205.242188 165.101562 C 205.242188 165.101562 208.765625 163.929688 209.941406 163.929688 C 211.117188 163.929688 214.640625 163.929688 214.640625 163.929688 C 215.8125 163.929688 220.511719 163.929688 221.6875 162.757812 C 221.6875 162.757812 225.210938 162.757812 225.210938 162.757812 C 225.210938 162.757812 236.957031 161.585938 238.128906 161.585938 C 238.128906 161.585938 244.003906 162.757812 244.003906 162.757812 C 245.179688 162.757812 231.082031 160.414062 227.558594 161.585938 C 226.386719 162.757812 227.558594 161.585938 227.558594 161.585938 C 227.558594 161.585938 229.910156 160.414062 229.910156 160.414062 C 231.082031 160.414062 235.78125 158.070312 235.78125 158.070312 L 236.957031 158.070312 C 238.128906 158.070312 229.910156 159.242188 228.734375 160.414062 C 227.558594 160.414062 226.386719 160.414062 224.035156 161.585938 C 222.863281 161.585938 219.339844 161.585938 218.164062 161.585938 C 216.988281 161.585938 214.640625 161.585938 213.464844 161.585938 C 211.117188 161.585938 207.59375 161.585938 205.242188 162.757812 C 204.070312 162.757812 204.070312 162.757812 205.242188 161.585938 C 207.59375 160.414062 209.941406 160.414062 213.464844 159.242188 C 214.640625 159.242188 216.988281 159.242188 219.339844 159.242188 C 220.511719 158.070312 216.988281 159.242188 215.8125 159.242188 C 214.640625 159.242188 213.464844 159.242188 211.117188 159.242188 C 207.59375 160.414062 209.941406 160.414062 211.117188 159.242188 C 209.941406 159.242188 207.59375 160.414062 207.59375 160.414062 C 207.59375 160.414062 201.71875 162.757812 201.71875 162.757812 C 200.546875 163.929688 198.195312 163.929688 197.023438 163.929688 C 197.023438 163.929688 193.496094 163.929688 192.324219 165.101562 C 192.324219 163.929688 192.324219 163.929688 192.324219 163.929688 C 194.671875 162.757812 195.847656 156.898438 197.023438 155.726562 C 197.023438 154.554688 211.117188 155.726562 212.289062 155.726562 C 215.8125 155.726562 220.511719 153.382812 222.863281 152.210938 C 227.558594 148.695312 231.082031 151.039062 235.78125 152.210938 C 238.128906 152.210938 240.480469 153.382812 241.65625 153.382812 C 246.351562 153.382812 247.527344 156.898438 253.398438 155.726562 C 256.921875 155.726562 263.972656 155.726562 266.320312 156.898438 C 269.84375 158.070312 273.367188 158.070312 276.890625 160.414062 C 279.238281 162.757812 281.589844 162.757812 285.113281 163.929688 C 287.460938 165.101562 289.8125 165.101562 290.984375 166.273438 C 292.160156 166.273438 300.382812 165.101562 295.683594 165.101562 C 292.160156 165.101562 292.160156 165.101562 289.8125 163.929688 C 287.460938 163.929688 283.9375 161.585938 282.761719 160.414062 C 282.761719 160.414062 280.414062 159.242188 280.414062 159.242188 C 279.238281 158.070312 273.367188 156.898438 273.367188 154.554688 C 273.367188 153.382812 279.238281 153.382812 280.414062 153.382812 C 281.589844 152.210938 286.289062 152.210938 286.289062 152.210938 C 285.113281 151.039062 282.761719 152.210938 281.589844 152.210938 C 276.890625 152.210938 267.496094 154.554688 263.972656 153.382812 C 261.621094 153.382812 261.621094 152.210938 259.273438 152.210938 C 256.921875 152.210938 249.875 153.382812 248.703125 152.210938 C 247.527344 152.210938 245.179688 151.039062 245.179688 149.867188 C 244.003906 149.867188 242.828125 149.867188 241.65625 149.867188 C 240.480469 149.867188 239.304688 148.695312 238.128906 148.695312 C 234.605469 148.695312 236.957031 147.523438 235.78125 147.523438 C 235.78125 146.351562 239.304688 145.179688 240.480469 144.007812 C 241.65625 144.007812 241.65625 144.007812 244.003906 142.835938 C 245.179688 141.664062 247.527344 141.664062 248.703125 140.492188 C 249.875 139.320312 249.875 139.320312 251.050781 139.320312 C 252.226562 138.148438 256.921875 138.148438 258.097656 139.320312 C 259.273438 139.320312 262.796875 139.320312 265.144531 139.320312 C 266.320312 139.320312 269.84375 140.492188 271.019531 140.492188 C 275.714844 140.492188 279.238281 139.320312 285.113281 139.320312 C 286.289062 139.320312 280.414062 139.320312 280.414062 139.320312 C 279.238281 138.148438 271.019531 138.148438 271.019531 138.148438 C 271.019531 138.148438 269.84375 138.148438 269.84375 138.148438 C 269.84375 138.148438 263.972656 136.976562 263.972656 136.976562 C 261.621094 136.976562 261.621094 136.976562 260.445312 136.976562 C 258.097656 135.804688 255.75 136.976562 254.574219 135.804688 C 254.574219 134.632812 256.921875 133.460938 256.921875 133.460938 C 258.097656 133.460938 259.273438 131.117188 260.445312 131.117188 C 261.621094 129.945312 265.144531 128.773438 266.320312 127.601562 C 266.320312 126.429688 260.445312 129.945312 259.273438 131.117188 C 258.097656 131.117188 255.75 132.289062 254.574219 133.460938 C 252.226562 134.632812 248.703125 136.976562 246.351562 136.976562 C 244.003906 138.148438 241.65625 138.148438 239.304688 140.492188 C 236.957031 141.664062 235.78125 142.835938 233.433594 144.007812 C 232.257812 144.007812 229.910156 145.179688 228.734375 146.351562 C 227.558594 147.523438 225.210938 146.351562 224.035156 147.523438 C 221.6875 148.695312 221.6875 148.695312 220.511719 149.867188 C 219.339844 149.867188 218.164062 149.867188 218.164062 149.867188 C 216.988281 151.039062 215.8125 149.867188 214.640625 151.039062 C 212.289062 151.039062 209.941406 151.039062 207.59375 151.039062 C 205.242188 151.039062 205.242188 151.039062 202.894531 149.867188 C 200.546875 149.867188 200.546875 149.867188 200.546875 147.523438 C 200.546875 146.351562 200.546875 146.351562 200.546875 145.179688 C 201.71875 144.007812 202.894531 142.835938 204.070312 142.835938 C 204.070312 142.835938 207.59375 141.664062 208.765625 141.664062 C 209.941406 141.664062 209.941406 141.664062 211.117188 140.492188 C 212.289062 140.492188 212.289062 140.492188 213.464844 140.492188 C 213.464844 139.320312 214.640625 138.148438 214.640625 138.148438 C 216.988281 138.148438 216.988281 136.976562 218.164062 135.804688 C 219.339844 135.804688 221.6875 133.460938 221.6875 133.460938 C 221.6875 133.460938 221.6875 132.289062 221.6875 132.289062 C 222.863281 131.117188 224.035156 128.773438 225.210938 127.601562 C 225.210938 127.601562 227.558594 124.085938 227.558594 124.085938 C 228.734375 122.914062 229.910156 122.914062 231.082031 121.742188 C 231.082031 121.742188 233.433594 120.570312 233.433594 120.570312 C 234.605469 119.398438 234.605469 119.398438 235.78125 119.398438 C 236.957031 118.226562 236.957031 118.226562 239.304688 118.226562 C 240.480469 117.054688 244.003906 117.054688 246.351562 117.054688 C 247.527344 117.054688 249.875 117.054688 252.226562 117.054688 C 253.398438 118.226562 258.097656 118.226562 259.273438 118.226562 C 260.445312 118.226562 262.796875 119.398438 265.144531 119.398438 C 268.667969 119.398438 267.496094 119.398438 265.144531 118.226562 C 262.796875 118.226562 260.445312 118.226562 258.097656 117.054688 C 258.097656 117.054688 254.574219 115.882812 254.574219 115.882812 C 253.398438 115.882812 251.050781 114.710938 248.703125 114.710938 C 246.351562 113.539062 253.398438 111.195312 254.574219 111.195312 C 255.75 110.023438 256.921875 110.023438 258.097656 110.023438 C 259.273438 108.851562 259.273438 107.679688 260.445312 107.679688 C 261.621094 106.507812 262.796875 106.507812 263.972656 105.335938 C 263.972656 105.335938 263.972656 104.164062 263.972656 104.164062 C 263.972656 105.335938 262.796875 105.335938 262.796875 105.335938 C 262.796875 105.335938 261.621094 106.507812 260.445312 106.507812 C 259.273438 107.679688 258.097656 108.851562 258.097656 108.851562 C 256.921875 108.851562 256.921875 108.851562 255.75 110.023438 C 254.574219 110.023438 253.398438 111.195312 251.050781 111.195312 C 251.050781 111.195312 247.527344 112.367188 247.527344 112.367188 C 247.527344 112.367188 241.65625 114.710938 241.65625 114.710938 C 240.480469 114.710938 236.957031 115.882812 236.957031 115.882812 C 234.605469 117.054688 235.78125 115.882812 234.605469 117.054688 C 231.082031 117.054688 232.257812 114.710938 233.433594 113.539062 C 233.433594 110.023438 234.605469 108.851562 235.78125 106.507812 C 236.957031 105.335938 241.65625 99.476562 242.828125 98.304688 C 242.828125 98.304688 244.003906 97.132812 244.003906 97.132812 C 240.480469 100.648438 239.304688 99.476562 235.78125 104.164062 C 233.433594 107.679688 232.257812 108.851562 231.082031 112.367188 C 229.910156 113.539062 231.082031 113.539062 229.910156 114.710938 C 229.910156 117.054688 228.734375 117.054688 227.558594 118.226562 C 226.386719 119.398438 225.210938 120.570312 224.035156 120.570312 C 221.6875 121.742188 220.511719 127.601562 218.164062 129.945312 C 216.988281 132.289062 216.988281 132.289062 215.8125 133.460938 C 214.640625 134.632812 213.464844 134.632812 212.289062 134.632812 C 212.289062 135.804688 207.59375 136.976562 206.417969 136.976562 C 204.070312 136.976562 204.070312 136.976562 204.070312 134.632812 C 204.070312 133.460938 208.765625 131.117188 209.941406 129.945312 C 209.941406 129.945312 211.117188 127.601562 212.289062 127.601562 C 212.289062 127.601562 213.464844 126.429688 213.464844 125.257812 C 213.464844 124.085938 213.464844 122.914062 213.464844 122.914062 C 213.464844 120.570312 213.464844 119.398438 212.289062 117.054688 C 212.289062 115.882812 212.289062 113.539062 212.289062 112.367188 C 212.289062 110.023438 212.289062 105.335938 213.464844 104.164062 C 213.464844 102.992188 213.464844 100.648438 213.464844 99.476562 C 213.464844 97.132812 213.464844 93.617188 214.640625 93.617188 C 216.988281 92.445312 218.164062 91.273438 220.511719 90.101562 C 221.6875 88.929688 221.6875 86.585938 221.6875 85.414062 C 221.6875 83.070312 222.863281 81.898438 222.863281 80.726562 C 222.863281 81.898438 221.6875 84.242188 221.6875 84.242188 C 221.6875 85.414062 220.511719 87.757812 219.339844 88.929688 C 219.339844 88.929688 216.988281 90.101562 216.988281 90.101562 C 215.8125 90.101562 214.640625 91.273438 214.640625 91.273438 C 213.464844 92.445312 212.289062 92.445312 212.289062 93.617188 C 211.117188 95.960938 212.289062 98.304688 209.941406 100.648438 C 208.765625 104.164062 206.417969 94.789062 206.417969 93.617188 C 206.417969 92.445312 205.242188 86.585938 204.070312 85.414062 C 204.070312 85.414062 204.070312 83.070312 204.070312 83.070312 C 204.070312 81.898438 204.070312 79.554688 204.070312 81.898438 C 204.070312 84.242188 204.070312 85.414062 204.070312 86.585938 C 204.070312 90.101562 206.417969 95.960938 206.417969 98.304688 C 206.417969 101.820312 207.59375 102.992188 207.59375 105.335938 L 208.765625 105.335938 C 209.941406 107.679688 208.765625 108.851562 208.765625 111.195312 C 208.765625 112.367188 207.59375 112.367188 208.765625 118.226562 C 209.941406 120.570312 206.417969 125.257812 205.242188 126.429688 C 200.546875 128.773438 200.546875 127.601562 197.023438 132.289062 C 195.847656 135.804688 195.847656 134.632812 195.847656 133.460938 C 194.671875 131.117188 193.496094 124.085938 194.671875 121.742188 C 194.671875 121.742188 198.195312 108.851562 198.195312 107.679688 C 198.195312 107.679688 195.847656 112.367188 194.671875 113.539062 C 193.496094 115.882812 192.324219 113.539062 192.324219 112.367188 C 191.148438 108.851562 192.324219 106.507812 191.148438 108.851562 C 191.148438 114.710938 194.671875 119.398438 192.324219 122.914062 C 189.972656 125.257812 192.324219 131.117188 193.496094 134.632812 C 195.847656 139.320312 193.496094 144.007812 192.324219 148.695312 C 191.148438 149.867188 191.148438 152.210938 189.972656 153.382812 C 187.625 155.726562 189.972656 156.898438 187.625 155.726562 C 185.277344 154.554688 181.753906 147.523438 181.753906 146.351562 C 180.578125 145.179688 177.054688 140.492188 177.054688 138.148438 C 177.054688 136.976562 178.230469 133.460938 178.230469 133.460938 C 179.402344 129.945312 177.054688 121.742188 178.230469 117.054688 C 179.402344 115.882812 185.277344 99.476562 184.101562 95.960938 C 184.101562 93.617188 182.925781 92.445312 184.101562 90.101562 C 184.101562 88.929688 186.449219 85.414062 186.449219 84.242188 C 186.449219 84.242188 188.800781 80.726562 188.800781 80.726562 C 188.800781 80.726562 186.449219 83.070312 186.449219 83.070312 C 185.277344 84.242188 184.101562 86.585938 182.925781 86.585938 C 182.925781 87.757812 180.578125 84.242188 179.402344 84.242188 C 179.402344 83.070312 177.054688 81.898438 177.054688 81.898438 C 177.054688 81.898438 178.230469 83.070312 178.230469 83.070312 C 180.578125 85.414062 180.578125 85.414062 181.753906 87.757812 C 182.925781 91.273438 181.753906 92.445312 181.753906 94.789062 C 181.753906 97.132812 180.578125 100.648438 180.578125 101.820312 C 180.578125 102.992188 179.402344 107.679688 178.230469 107.679688 C 177.054688 108.851562 178.230469 110.023438 175.878906 110.023438 C 174.707031 110.023438 171.183594 104.164062 171.183594 102.992188 C 170.007812 99.476562 171.183594 100.648438 171.183594 97.132812 C 171.183594 95.960938 170.007812 94.789062 170.007812 94.789062 C 170.007812 92.445312 170.007812 90.101562 170.007812 88.929688 C 170.007812 87.757812 168.832031 87.757812 170.007812 88.929688 C 170.007812 90.101562 170.007812 92.445312 170.007812 93.617188 C 170.007812 94.789062 170.007812 95.960938 170.007812 97.132812 C 170.007812 98.304688 168.832031 98.304688 168.832031 99.476562 C 167.65625 101.820312 167.65625 99.476562 166.484375 99.476562 C 165.308594 99.476562 162.960938 98.304688 161.785156 97.132812 C 160.609375 95.960938 159.4375 94.789062 157.085938 93.617188 C 155.914062 91.273438 153.5625 88.929688 151.214844 87.757812 C 150.039062 86.585938 151.214844 88.929688 152.390625 88.929688 C 152.390625 90.101562 155.914062 93.617188 157.085938 94.789062 C 158.261719 95.960938 158.261719 97.132812 159.4375 98.304688 C 160.609375 98.304688 167.65625 101.820312 167.65625 102.992188 C 170.007812 105.335938 170.007812 104.164062 171.183594 108.851562 C 171.183594 111.195312 173.53125 117.054688 173.53125 118.226562 C 173.53125 118.226562 174.707031 119.398438 174.707031 119.398438 C 174.707031 122.914062 174.707031 122.914062 174.707031 125.257812 C 174.707031 126.429688 173.53125 128.773438 173.53125 129.945312 C 173.53125 129.945312 172.355469 134.632812 172.355469 134.632812 C 172.355469 135.804688 172.355469 135.804688 171.183594 135.804688 C 170.007812 135.804688 168.832031 135.804688 167.65625 134.632812 C 165.308594 133.460938 165.308594 133.460938 162.960938 132.289062 C 162.960938 132.289062 158.261719 128.773438 158.261719 124.085938 C 157.085938 122.914062 155.914062 119.398438 155.914062 119.398438 C 155.914062 118.226562 154.738281 115.882812 153.5625 114.710938 C 153.5625 114.710938 151.214844 112.367188 151.214844 111.195312 C 151.214844 111.195312 148.867188 107.679688 148.867188 107.679688 C 147.691406 104.164062 147.691406 102.992188 146.515625 100.648438 C 146.515625 98.304688 145.339844 97.132812 145.339844 95.960938 C 144.167969 95.960938 142.992188 92.445312 141.816406 92.445312 C 142.992188 93.617188 145.339844 100.648438 146.515625 101.820312 C 146.515625 102.992188 146.515625 107.679688 147.691406 107.679688 C 147.691406 107.679688 147.691406 107.679688 146.515625 107.679688 C 146.515625 107.679688 144.167969 107.679688 144.167969 107.679688 C 141.816406 107.679688 133.597656 107.679688 131.246094 106.507812 C 131.246094 106.507812 124.199219 104.164062 124.199219 104.164062 C 123.023438 104.164062 126.550781 106.507812 127.722656 106.507812 C 130.074219 107.679688 131.246094 107.679688 134.769531 108.851562 C 135.945312 108.851562 138.292969 108.851562 139.46875 108.851562 C 141.816406 110.023438 145.339844 110.023438 147.691406 111.195312 C 148.867188 111.195312 150.039062 114.710938 151.214844 115.882812 C 153.5625 118.226562 153.5625 121.742188 154.738281 124.085938 C 154.738281 126.429688 154.738281 126.429688 155.914062 128.773438 C 155.914062 128.773438 154.738281 128.773438 154.738281 128.773438 C 150.039062 128.773438 150.039062 129.945312 146.515625 127.601562 C 145.339844 126.429688 144.167969 126.429688 144.167969 126.429688 C 144.167969 125.257812 142.992188 125.257812 141.816406 125.257812 C 141.816406 125.257812 137.121094 125.257812 137.121094 125.257812 C 135.945312 125.257812 137.121094 125.257812 135.945312 125.257812 C 135.945312 124.085938 132.421875 124.085938 132.421875 122.914062 C 128.898438 121.742188 125.375 119.398438 121.851562 118.226562 C 120.675781 117.054688 114.804688 114.710938 113.628906 114.710938 C 112.453125 114.710938 110.105469 113.539062 108.929688 113.539062 C 107.757812 112.367188 111.28125 113.539062 111.28125 113.539062 C 112.453125 113.539062 114.804688 115.882812 117.152344 117.054688 C 119.5 118.226562 123.023438 120.570312 125.375 122.914062 C 126.550781 122.914062 128.898438 124.085938 128.898438 125.257812 C 126.550781 125.257812 124.199219 126.429688 121.851562 127.601562 C 120.675781 127.601562 119.5 128.773438 118.328125 128.773438 C 115.976562 129.945312 112.453125 131.117188 111.28125 131.117188 C 108.929688 131.117188 107.757812 131.117188 105.40625 132.289062 C 105.40625 132.289062 96.011719 131.117188 98.359375 132.289062 C 99.535156 132.289062 100.707031 132.289062 101.882812 132.289062 C 104.234375 132.289062 105.40625 132.289062 106.582031 132.289062 C 110.105469 132.289062 114.804688 132.289062 117.152344 131.117188 C 118.328125 129.945312 123.023438 128.773438 123.023438 127.601562 C 127.722656 127.601562 127.722656 126.429688 131.246094 126.429688 C 133.597656 126.429688 133.597656 126.429688 134.769531 126.429688 C 135.945312 127.601562 140.644531 127.601562 141.816406 128.773438 C 142.992188 128.773438 145.339844 129.945312 146.515625 129.945312 L 146.515625 131.117188 C 147.691406 131.117188 151.214844 132.289062 152.390625 132.289062 C 154.738281 132.289062 155.914062 133.460938 157.085938 133.460938 Z M 157.085938 133.460938 " fill-opacity="1" fill-rule="evenodd"/><g clip-path="url(#ae6ed29309)"><path fill="#897870" d="M 124.199219 255.335938 C 124.199219 254.164062 124.199219 254.164062 124.199219 254.164062 C 124.199219 254.164062 124.199219 254.164062 124.199219 255.335938 Z M 225.210938 250.648438 C 227.558594 250.648438 229.910156 250.648438 232.257812 249.476562 C 232.257812 250.648438 233.433594 250.648438 233.433594 251.820312 C 234.605469 255.335938 239.304688 257.679688 239.304688 260.023438 C 240.480469 262.367188 240.480469 263.539062 241.65625 264.710938 C 241.65625 267.054688 245.179688 270.570312 246.351562 272.914062 C 246.351562 275.257812 249.875 279.945312 249.875 281.117188 C 249.875 276.429688 247.527344 276.429688 247.527344 272.914062 C 247.527344 268.226562 246.351562 268.226562 245.179688 264.710938 C 241.65625 258.851562 244.003906 263.539062 245.179688 263.539062 C 247.527344 263.539062 249.875 264.710938 249.875 264.710938 C 249.875 264.710938 249.875 265.882812 249.875 265.882812 C 252.226562 270.570312 252.226562 267.054688 251.050781 265.882812 C 248.703125 261.195312 242.828125 261.195312 239.304688 255.335938 C 238.128906 254.164062 236.957031 250.648438 236.957031 250.648438 C 239.304688 250.648438 245.179688 252.992188 246.351562 254.164062 C 252.226562 255.335938 251.050781 260.023438 254.574219 262.367188 C 258.097656 265.882812 256.921875 269.398438 256.921875 272.914062 C 256.921875 274.085938 255.75 278.773438 256.921875 277.601562 C 259.273438 272.914062 258.097656 271.742188 258.097656 267.054688 C 258.097656 265.882812 256.921875 261.195312 256.921875 261.195312 C 260.445312 262.367188 260.445312 261.195312 263.972656 263.539062 C 266.320312 264.710938 267.496094 268.226562 269.84375 270.570312 C 271.019531 271.742188 265.144531 260.023438 263.972656 260.023438 C 265.144531 262.367188 263.972656 258.851562 259.273438 258.851562 C 254.574219 258.851562 254.574219 255.335938 253.398438 255.335938 C 254.574219 255.335938 259.273438 255.335938 260.445312 256.507812 L 262.796875 256.507812 C 259.273438 254.164062 258.097656 255.335938 255.75 254.164062 C 253.398438 251.820312 252.226562 252.992188 251.050781 252.992188 C 244.003906 249.476562 247.527344 247.132812 253.398438 249.476562 C 254.574219 249.476562 254.574219 250.648438 254.574219 251.820312 C 256.921875 254.164062 260.445312 252.992188 263.972656 252.992188 C 265.144531 254.164062 269.84375 257.679688 271.019531 258.851562 C 272.191406 258.851562 273.367188 261.195312 273.367188 261.195312 C 272.191406 258.851562 271.019531 258.851562 269.84375 256.507812 C 268.667969 254.164062 266.320312 252.992188 265.144531 251.820312 C 263.972656 250.648438 259.273438 250.648438 259.273438 247.132812 C 259.273438 245.960938 265.144531 247.132812 266.320312 247.132812 C 268.667969 248.304688 274.542969 249.476562 275.714844 251.820312 C 276.890625 254.164062 279.238281 255.335938 278.066406 254.164062 C 278.066406 254.164062 278.066406 252.992188 278.066406 252.992188 C 276.890625 251.820312 276.890625 251.820312 275.714844 250.648438 C 273.367188 248.304688 274.542969 247.132812 269.84375 245.960938 C 265.144531 243.617188 260.445312 243.617188 255.75 243.617188 C 252.226562 243.617188 248.703125 243.617188 245.179688 244.789062 C 241.65625 245.960938 240.480469 245.960938 236.957031 245.960938 C 235.78125 245.960938 234.605469 244.789062 234.605469 244.789062 L 142.992188 244.789062 L 139.46875 245.960938 C 135.945312 247.132812 134.769531 245.960938 131.246094 244.789062 C 128.898438 243.617188 124.199219 243.617188 120.675781 243.617188 C 115.976562 243.617188 111.28125 243.617188 106.582031 245.960938 C 101.882812 247.132812 103.058594 248.304688 100.707031 250.648438 C 99.535156 251.820312 99.535156 251.820312 98.359375 252.992188 C 98.359375 252.992188 98.359375 254.164062 98.359375 254.164062 C 97.183594 255.335938 99.535156 254.164062 100.707031 251.820312 C 101.882812 249.476562 107.757812 248.304688 110.105469 247.132812 C 112.453125 247.132812 117.152344 245.960938 117.152344 247.132812 C 117.152344 250.648438 112.453125 250.648438 111.28125 251.820312 C 110.105469 252.992188 107.757812 254.164062 106.582031 256.507812 C 105.40625 258.851562 105.40625 258.851562 104.234375 261.195312 C 103.058594 261.195312 105.40625 258.851562 105.40625 258.851562 C 106.582031 257.679688 111.28125 254.164062 112.453125 252.992188 C 115.976562 252.992188 119.5 254.164062 121.851562 251.820312 C 121.851562 250.648438 123.023438 249.476562 124.199219 249.476562 C 128.898438 247.132812 132.421875 249.476562 126.550781 252.992188 C 124.199219 252.992188 123.023438 251.820312 120.675781 254.164062 C 118.328125 255.335938 117.152344 254.164062 114.804688 256.507812 C 113.628906 256.507812 113.628906 256.507812 113.628906 256.507812 L 115.976562 256.507812 C 118.328125 255.335938 121.851562 255.335938 124.199219 255.335938 C 121.851562 255.335938 121.851562 258.851562 117.152344 258.851562 C 112.453125 258.851562 111.28125 262.367188 112.453125 260.023438 C 111.28125 260.023438 105.40625 271.742188 106.582031 270.570312 C 108.929688 268.226562 110.105469 264.710938 112.453125 263.539062 C 117.152344 261.195312 115.976562 262.367188 119.5 261.195312 C 119.5 261.195312 118.328125 265.882812 118.328125 267.054688 C 118.328125 271.742188 118.328125 272.914062 119.5 277.601562 C 120.675781 278.773438 119.5 274.085938 119.5 272.914062 C 119.5 269.398438 118.328125 265.882812 121.851562 262.367188 C 125.375 260.023438 124.199219 255.335938 130.074219 254.164062 C 131.246094 252.992188 138.292969 250.648438 139.46875 250.648438 C 139.46875 250.648438 138.292969 254.164062 138.292969 255.335938 C 133.597656 261.195312 127.722656 261.195312 125.375 265.882812 C 125.375 267.054688 125.375 270.570312 126.550781 265.882812 C 126.550781 265.882812 127.722656 264.710938 127.722656 264.710938 C 127.722656 264.710938 130.074219 263.539062 131.246094 263.539062 C 132.421875 263.539062 134.769531 258.851562 132.421875 264.710938 C 130.074219 268.226562 130.074219 268.226562 128.898438 272.914062 C 128.898438 276.429688 127.722656 276.429688 127.722656 281.117188 C 127.722656 279.945312 130.074219 275.257812 131.246094 272.914062 C 131.246094 270.570312 134.769531 267.054688 135.945312 264.710938 C 135.945312 263.539062 137.121094 262.367188 137.121094 260.023438 C 137.121094 257.679688 140.644531 256.507812 141.816406 254.164062 C 144.167969 252.992188 145.339844 251.820312 146.515625 251.820312 C 146.515625 251.820312 148.867188 250.648438 151.214844 250.648438 C 150.039062 252.992188 147.691406 256.507812 146.515625 257.679688 C 144.167969 260.023438 142.992188 261.195312 141.816406 262.367188 C 141.816406 262.367188 140.644531 263.539062 139.46875 263.539062 C 139.46875 264.710938 146.515625 260.023438 148.867188 256.507812 C 151.214844 252.992188 153.5625 252.992188 158.261719 252.992188 C 158.261719 252.992188 155.914062 255.335938 155.914062 256.507812 C 155.914062 257.679688 153.5625 262.367188 151.214844 262.367188 C 148.867188 263.539062 146.515625 264.710938 142.992188 265.882812 C 138.292969 265.882812 140.644531 272.914062 138.292969 274.085938 C 137.121094 274.085938 134.769531 279.945312 133.597656 281.117188 C 132.421875 284.632812 134.769531 278.773438 137.121094 277.601562 C 138.292969 276.429688 135.945312 276.429688 139.46875 274.085938 C 141.816406 272.914062 141.816406 271.742188 141.816406 276.429688 C 141.816406 277.601562 141.816406 277.601562 141.816406 278.773438 C 141.816406 278.773438 141.816406 277.601562 142.992188 276.429688 C 142.992188 275.257812 142.992188 269.398438 142.992188 269.398438 C 145.339844 268.226562 144.167969 268.226562 147.691406 267.054688 C 148.867188 265.882812 151.214844 264.710938 153.5625 265.882812 C 154.738281 265.882812 154.738281 272.914062 153.5625 275.257812 C 152.390625 277.601562 152.390625 277.601562 150.039062 279.945312 C 148.867188 282.289062 147.691406 283.460938 147.691406 281.117188 C 147.691406 284.632812 144.167969 284.632812 144.167969 291.664062 C 144.167969 291.664062 145.339844 288.148438 146.515625 285.804688 C 148.867188 283.460938 150.039062 282.289062 152.390625 279.945312 C 154.738281 277.601562 153.5625 279.945312 155.914062 283.460938 C 155.914062 285.804688 154.738281 290.492188 154.738281 294.007812 C 155.914062 295.179688 154.738281 291.664062 155.914062 290.492188 C 155.914062 289.320312 157.085938 282.289062 155.914062 281.117188 C 155.914062 279.945312 155.914062 269.398438 157.085938 268.226562 C 158.261719 264.710938 157.085938 264.710938 160.609375 260.023438 C 161.785156 258.851562 162.960938 254.164062 165.308594 254.164062 C 167.65625 252.992188 166.484375 251.820312 171.183594 250.648438 C 171.183594 250.648438 175.878906 248.304688 175.878906 249.476562 C 174.707031 252.992188 170.007812 257.679688 167.65625 262.367188 C 167.65625 263.539062 165.308594 267.054688 164.132812 269.398438 C 162.960938 270.570312 162.960938 270.570312 161.785156 272.914062 C 161.785156 275.257812 161.785156 283.460938 161.785156 282.289062 C 162.960938 279.945312 162.960938 275.257812 164.132812 272.914062 C 165.308594 270.570312 165.308594 270.570312 166.484375 267.054688 C 166.484375 267.054688 168.832031 263.539062 168.832031 264.710938 C 168.832031 268.226562 168.832031 267.054688 170.007812 270.570312 C 170.007812 274.085938 166.484375 284.632812 164.132812 286.976562 C 162.960938 288.148438 162.960938 290.492188 162.960938 292.835938 C 162.960938 290.492188 167.65625 283.460938 167.65625 283.460938 C 167.65625 283.460938 168.832031 279.945312 168.832031 279.945312 C 171.183594 282.289062 171.183594 282.289062 171.183594 285.804688 C 171.183594 289.320312 171.183594 292.835938 171.183594 295.179688 C 171.183594 292.835938 172.355469 289.320312 172.355469 284.632812 C 172.355469 281.117188 170.007812 277.601562 171.183594 275.257812 C 171.183594 274.085938 171.183594 274.085938 171.183594 270.570312 C 171.183594 265.882812 172.355469 265.882812 173.53125 261.195312 C 174.707031 260.023438 177.054688 258.851562 178.230469 256.507812 C 179.402344 254.164062 180.578125 252.992188 181.753906 250.648438 C 182.925781 249.476562 187.625 243.617188 186.449219 249.476562 C 184.101562 254.164062 182.925781 260.023438 178.230469 263.539062 C 177.054688 265.882812 174.707031 277.601562 175.878906 279.945312 C 178.230469 282.289062 177.054688 286.976562 178.230469 289.320312 C 178.230469 289.320312 179.402344 294.007812 179.402344 295.179688 C 179.402344 294.007812 178.230469 285.804688 179.402344 286.976562 C 180.578125 290.492188 182.925781 292.835938 184.101562 296.351562 C 184.101562 297.523438 185.277344 298.695312 185.277344 299.867188 C 185.277344 299.867188 182.925781 290.492188 182.925781 289.320312 C 182.925781 285.804688 180.578125 278.773438 179.402344 274.085938 C 179.402344 271.742188 179.402344 269.398438 180.578125 269.398438 C 180.578125 268.226562 181.753906 264.710938 184.101562 262.367188 C 184.101562 261.195312 185.277344 261.195312 185.277344 260.023438 C 185.277344 263.539062 186.449219 265.882812 186.449219 269.398438 C 186.449219 271.742188 185.277344 271.742188 186.449219 274.085938 C 186.449219 274.085938 186.449219 283.460938 186.449219 284.632812 C 186.449219 284.632812 186.449219 285.804688 186.449219 285.804688 C 186.449219 285.804688 187.625 283.460938 187.625 282.289062 C 187.625 278.773438 187.625 276.429688 187.625 272.914062 C 187.625 272.914062 187.625 269.398438 188.800781 270.570312 C 191.148438 272.914062 189.972656 275.257812 192.324219 277.601562 L 193.496094 278.773438 C 193.496094 278.773438 192.324219 275.257812 191.148438 274.085938 C 191.148438 270.570312 188.800781 267.054688 189.972656 263.539062 C 191.148438 262.367188 191.148438 261.195312 191.148438 260.023438 C 191.148438 261.195312 192.324219 261.195312 192.324219 262.367188 C 192.324219 262.367188 193.496094 262.367188 194.671875 264.710938 C 194.671875 265.882812 195.847656 268.226562 195.847656 269.398438 C 197.023438 269.398438 197.023438 271.742188 197.023438 274.085938 C 195.847656 278.773438 194.671875 285.804688 194.671875 289.320312 C 194.671875 290.492188 191.148438 299.867188 191.148438 299.867188 C 191.148438 298.695312 192.324219 297.523438 193.496094 296.351562 C 194.671875 292.835938 195.847656 290.492188 197.023438 286.976562 C 198.195312 285.804688 198.195312 294.007812 198.195312 295.179688 C 198.195312 294.007812 198.195312 289.320312 198.195312 289.320312 C 199.371094 286.976562 198.195312 282.289062 200.546875 279.945312 C 201.71875 277.601562 200.546875 265.882812 198.195312 263.539062 C 194.671875 260.023438 192.324219 254.164062 189.972656 249.476562 C 188.800781 243.617188 193.496094 249.476562 194.671875 250.648438 C 197.023438 252.992188 197.023438 254.164062 198.195312 256.507812 C 199.371094 258.851562 201.71875 260.023438 202.894531 261.195312 C 204.070312 265.882812 205.242188 265.882812 205.242188 270.570312 C 205.242188 274.085938 205.242188 274.085938 206.417969 275.257812 C 206.417969 277.601562 204.070312 281.117188 204.070312 284.632812 C 204.070312 289.320312 205.242188 292.835938 205.242188 295.179688 C 205.242188 292.835938 205.242188 289.320312 205.242188 285.804688 C 205.242188 282.289062 205.242188 282.289062 207.59375 279.945312 C 207.59375 279.945312 208.765625 283.460938 208.765625 283.460938 C 209.941406 283.460938 213.464844 290.492188 213.464844 292.835938 C 213.464844 290.492188 213.464844 288.148438 212.289062 286.976562 C 209.941406 284.632812 206.417969 274.085938 207.59375 270.570312 C 207.59375 267.054688 207.59375 268.226562 207.59375 264.710938 C 207.59375 263.539062 209.941406 267.054688 209.941406 267.054688 C 212.289062 270.570312 211.117188 270.570312 212.289062 272.914062 C 214.640625 275.257812 213.464844 279.945312 214.640625 282.289062 C 214.640625 283.460938 214.640625 275.257812 214.640625 272.914062 C 213.464844 270.570312 213.464844 270.570312 213.464844 269.398438 C 212.289062 267.054688 208.765625 263.539062 208.765625 262.367188 C 207.59375 257.679688 202.894531 252.992188 200.546875 249.476562 C 200.546875 248.304688 205.242188 250.648438 206.417969 250.648438 C 209.941406 251.820312 208.765625 252.992188 212.289062 254.164062 C 213.464844 254.164062 214.640625 258.851562 215.8125 260.023438 C 219.339844 264.710938 218.164062 264.710938 219.339844 268.226562 C 220.511719 269.398438 221.6875 279.945312 220.511719 281.117188 C 219.339844 282.289062 220.511719 289.320312 221.6875 290.492188 C 221.6875 291.664062 221.6875 295.179688 221.6875 294.007812 C 222.863281 290.492188 220.511719 285.804688 221.6875 283.460938 C 222.863281 279.945312 222.863281 277.601562 224.035156 279.945312 C 226.386719 282.289062 227.558594 283.460938 229.910156 285.804688 C 231.082031 288.148438 232.257812 291.664062 232.257812 291.664062 C 232.257812 284.632812 229.910156 284.632812 228.734375 281.117188 C 228.734375 283.460938 228.734375 282.289062 226.386719 279.945312 C 224.035156 277.601562 224.035156 277.601562 222.863281 275.257812 C 221.6875 272.914062 221.6875 265.882812 222.863281 265.882812 C 225.210938 264.710938 227.558594 265.882812 229.910156 267.054688 C 232.257812 268.226562 232.257812 268.226562 233.433594 269.398438 C 233.433594 269.398438 234.605469 275.257812 234.605469 276.429688 C 234.605469 277.601562 234.605469 278.773438 234.605469 278.773438 C 234.605469 277.601562 234.605469 277.601562 234.605469 276.429688 C 234.605469 271.742188 234.605469 272.914062 236.957031 274.085938 C 240.480469 276.429688 239.304688 276.429688 240.480469 277.601562 C 241.65625 278.773438 244.003906 284.632812 242.828125 281.117188 C 241.65625 279.945312 240.480469 274.085938 239.304688 274.085938 C 235.78125 272.914062 238.128906 265.882812 233.433594 265.882812 C 229.910156 264.710938 227.558594 263.539062 225.210938 262.367188 C 222.863281 262.367188 220.511719 257.679688 220.511719 256.507812 C 220.511719 255.335938 218.164062 252.992188 218.164062 252.992188 C 222.863281 252.992188 225.210938 252.992188 227.558594 256.507812 C 229.910156 260.023438 236.957031 264.710938 236.957031 263.539062 C 236.957031 263.539062 235.78125 262.367188 234.605469 262.367188 C 233.433594 261.195312 232.257812 260.023438 231.082031 257.679688 C 228.734375 256.507812 226.386719 252.992188 225.210938 250.648438 Z M 225.210938 250.648438 " fill-opacity="1" fill-rule="evenodd"/></g><g clip-path="url(#9862425344)"><path fill="#d2ae6d" d="M 81.917969 169.789062 C 79.566406 173.304688 74.867188 172.132812 73.695312 167.445312 C 76.042969 168.617188 79.566406 165.101562 81.917969 169.789062 Z M 81.917969 169.789062 " fill-opacity="1" fill-rule="evenodd"/></g><path fill="#d2ae6d" d="M 87.789062 173.304688 C 86.613281 176.820312 81.917969 177.992188 79.566406 174.476562 C 81.917969 174.476562 84.265625 169.789062 87.789062 173.304688 Z M 87.789062 173.304688 " fill-opacity="1" fill-rule="evenodd"/><path fill="#d2ae6d" d="M 106.582031 169.789062 C 105.40625 172.132812 101.882812 173.304688 100.707031 170.960938 C 103.058594 170.960938 104.234375 167.445312 106.582031 169.789062 Z M 106.582031 169.789062 " fill-opacity="1" fill-rule="evenodd"/><path fill="#d2ae6d" d="M 94.835938 153.382812 C 91.3125 155.726562 86.613281 152.210938 87.789062 147.523438 C 90.136719 149.867188 94.835938 147.523438 94.835938 153.382812 Z M 94.835938 153.382812 " fill-opacity="1" fill-rule="evenodd"/><path fill="#d2ae6d" d="M 131.246094 149.867188 C 128.898438 153.382812 124.199219 152.210938 124.199219 148.695312 C 126.550781 149.867188 128.898438 146.351562 131.246094 149.867188 Z M 131.246094 149.867188 " fill-opacity="1" fill-rule="evenodd"/><path fill="#d2ae6d" d="M 118.328125 134.632812 C 117.152344 138.148438 112.453125 136.976562 111.28125 134.632812 C 113.628906 134.632812 115.976562 131.117188 118.328125 134.632812 Z M 118.328125 134.632812 " fill-opacity="1" fill-rule="evenodd"/><path fill="#d2ae6d" d="M 98.359375 132.289062 C 97.183594 134.632812 92.488281 134.632812 91.3125 131.117188 C 93.660156 132.289062 96.011719 128.773438 98.359375 132.289062 Z M 98.359375 132.289062 " fill-opacity="1" fill-rule="evenodd"/><path fill="#d2ae6d" d="M 110.105469 113.539062 C 106.582031 115.882812 103.058594 113.539062 104.234375 110.023438 C 105.40625 111.195312 108.929688 108.851562 110.105469 113.539062 Z M 110.105469 113.539062 " fill-opacity="1" fill-rule="evenodd"/><path fill="#d2ae6d" d="M 124.199219 105.335938 C 121.851562 106.507812 118.328125 105.335938 118.328125 101.820312 C 120.675781 102.992188 124.199219 100.648438 124.199219 105.335938 Z M 124.199219 105.335938 " fill-opacity="1" fill-rule="evenodd"/><path fill="#d2ae6d" d="M 142.992188 92.445312 C 139.46875 93.617188 137.121094 90.101562 139.46875 87.757812 C 139.46875 88.929688 144.167969 88.929688 142.992188 92.445312 Z M 142.992188 92.445312 " fill-opacity="1" fill-rule="evenodd"/><path fill="#d2ae6d" d="M 151.214844 87.757812 C 147.691406 88.929688 145.339844 84.242188 146.515625 81.898438 C 147.691406 84.242188 152.390625 83.070312 151.214844 87.757812 Z M 151.214844 87.757812 " fill-opacity="1" fill-rule="evenodd"/><path fill="#d2ae6d" d="M 170.007812 88.929688 C 171.183594 86.585938 168.832031 83.070312 165.308594 83.070312 C 167.65625 85.414062 165.308594 88.929688 170.007812 88.929688 Z M 170.007812 88.929688 " fill-opacity="1" fill-rule="evenodd"/><path fill="#d2ae6d" d="M 177.054688 81.898438 C 179.402344 79.554688 177.054688 76.039062 173.53125 77.210938 C 175.878906 78.382812 173.53125 81.898438 177.054688 81.898438 Z M 177.054688 81.898438 " fill-opacity="1" fill-rule="evenodd"/><g clip-path="url(#77797143b0)"><path fill="#d2ae6d" d="M 187.625 81.898438 C 191.148438 80.726562 193.496094 77.210938 189.972656 74.867188 C 189.972656 77.210938 186.449219 77.210938 187.625 81.898438 Z M 187.625 81.898438 " fill-opacity="1" fill-rule="evenodd"/></g><path fill="#d2ae6d" d="M 221.6875 83.070312 C 225.210938 83.070312 227.558594 79.554688 224.035156 77.210938 C 224.035156 79.554688 220.511719 79.554688 221.6875 83.070312 Z M 221.6875 83.070312 " fill-opacity="1" fill-rule="evenodd"/><path fill="#d2ae6d" d="M 204.070312 83.070312 C 201.71875 80.726562 202.894531 77.210938 206.417969 77.210938 C 205.242188 79.554688 207.59375 81.898438 204.070312 83.070312 Z M 204.070312 83.070312 " fill-opacity="1" fill-rule="evenodd"/><path fill="#d2ae6d" d="M 198.195312 108.851562 C 200.546875 108.851562 201.71875 105.335938 200.546875 104.164062 C 199.371094 105.335938 197.023438 106.507812 198.195312 108.851562 Z M 198.195312 108.851562 " fill-opacity="1" fill-rule="evenodd"/><path fill="#d2ae6d" d="M 191.148438 110.023438 C 189.972656 107.679688 192.324219 105.335938 193.496094 105.335938 C 193.496094 106.507812 194.671875 108.851562 191.148438 110.023438 Z M 191.148438 110.023438 " fill-opacity="1" fill-rule="evenodd"/><path fill="#d2ae6d" d="M 244.003906 97.132812 C 246.351562 97.132812 248.703125 93.617188 245.179688 91.273438 C 245.179688 93.617188 241.65625 93.617188 244.003906 97.132812 Z M 244.003906 97.132812 " fill-opacity="1" fill-rule="evenodd"/><path fill="#d2ae6d" d="M 263.972656 105.335938 C 267.496094 105.335938 268.667969 100.648438 266.320312 98.304688 C 266.320312 100.648438 261.621094 101.820312 263.972656 105.335938 Z M 263.972656 105.335938 " fill-opacity="1" fill-rule="evenodd"/><path fill="#d2ae6d" d="M 265.144531 118.226562 C 267.496094 115.882812 271.019531 118.226562 271.019531 121.742188 C 269.84375 119.398438 266.320312 122.914062 265.144531 118.226562 Z M 265.144531 118.226562 " fill-opacity="1" fill-rule="evenodd"/><path fill="#d2ae6d" d="M 265.144531 128.773438 C 265.144531 126.429688 267.496094 125.257812 268.667969 126.429688 C 267.496094 126.429688 267.496094 129.945312 265.144531 128.773438 Z M 265.144531 128.773438 " fill-opacity="1" fill-rule="evenodd"/><path fill="#d2ae6d" d="M 283.9375 139.320312 C 285.113281 141.664062 289.8125 140.492188 289.8125 136.976562 C 288.636719 138.148438 285.113281 135.804688 283.9375 139.320312 Z M 283.9375 139.320312 " fill-opacity="1" fill-rule="evenodd"/><path fill="#d2ae6d" d="M 285.113281 152.210938 C 287.460938 154.554688 290.984375 153.382812 292.160156 149.867188 C 289.8125 151.039062 286.289062 148.695312 285.113281 152.210938 Z M 285.113281 152.210938 " fill-opacity="1" fill-rule="evenodd"/><g clip-path="url(#9c194f6be8)"><path fill="#d2ae6d" d="M 296.859375 166.273438 C 298.03125 167.445312 300.382812 166.273438 301.554688 165.101562 C 299.207031 165.101562 298.03125 163.929688 296.859375 166.273438 Z M 296.859375 166.273438 " fill-opacity="1" fill-rule="evenodd"/></g><path fill="#d2ae6d" d="M 242.828125 162.757812 C 244.003906 163.929688 247.527344 162.757812 247.527344 161.585938 C 246.351562 161.585938 244.003906 160.414062 242.828125 162.757812 Z M 242.828125 162.757812 " fill-opacity="1" fill-rule="evenodd"/><path fill="#d2ae6d" d="M 235.78125 158.070312 C 236.957031 160.414062 240.480469 159.242188 240.480469 156.898438 C 238.128906 158.070312 236.957031 155.726562 235.78125 158.070312 Z M 235.78125 158.070312 " fill-opacity="1" fill-rule="evenodd"/><path fill="#d2ae6d" d="M 219.339844 159.242188 C 220.511719 160.414062 222.863281 159.242188 222.863281 156.898438 C 221.6875 158.070312 220.511719 155.726562 219.339844 159.242188 Z M 219.339844 159.242188 " fill-opacity="1" fill-rule="evenodd"/><path fill="#d2ae6d" d="M 227.558594 176.820312 C 227.558594 179.164062 232.257812 180.335938 233.433594 177.992188 C 231.082031 177.992188 229.910156 173.304688 227.558594 176.820312 Z M 227.558594 176.820312 " fill-opacity="1" fill-rule="evenodd"/><path fill="#d2ae6d" d="M 219.339844 162.757812 C 219.339844 166.273438 222.863281 168.617188 225.210938 166.273438 C 222.863281 165.101562 222.863281 161.585938 219.339844 162.757812 Z M 219.339844 162.757812 " fill-opacity="1" fill-rule="evenodd"/><path fill="#d2ae6d" d="M 232.257812 161.585938 C 231.082031 165.101562 234.605469 166.273438 236.957031 165.101562 C 235.78125 163.929688 235.78125 160.414062 232.257812 161.585938 Z M 232.257812 161.585938 " fill-opacity="1" fill-rule="evenodd"/><path fill="#d2ae6d" d="M 256.921875 155.726562 C 260.445312 154.554688 262.796875 156.898438 261.621094 160.414062 C 260.445312 158.070312 256.921875 159.242188 256.921875 155.726562 Z M 256.921875 155.726562 " fill-opacity="1" fill-rule="evenodd"/><path fill="#d2ae6d" d="M 275.714844 159.242188 C 278.066406 159.242188 279.238281 163.929688 276.890625 166.273438 C 276.890625 163.929688 272.191406 162.757812 275.714844 159.242188 Z M 275.714844 159.242188 " fill-opacity="1" fill-rule="evenodd"/><path fill="#d2ae6d" d="M 287.460938 163.929688 C 290.984375 165.101562 292.160156 169.789062 289.8125 170.960938 C 289.8125 168.617188 285.113281 167.445312 287.460938 163.929688 Z M 287.460938 163.929688 " fill-opacity="1" fill-rule="evenodd"/><path fill="#d2ae6d" d="M 244.003906 141.664062 C 246.351562 140.492188 251.050781 142.835938 249.875 145.179688 C 248.703125 144.007812 245.179688 146.351562 244.003906 141.664062 Z M 244.003906 141.664062 " fill-opacity="1" fill-rule="evenodd"/><path fill="#d2ae6d" d="M 259.273438 139.320312 C 262.796875 138.148438 265.144531 141.664062 263.972656 145.179688 C 262.796875 142.835938 259.273438 142.835938 259.273438 139.320312 Z M 259.273438 139.320312 " fill-opacity="1" fill-rule="evenodd"/><path fill="#d2ae6d" d="M 274.542969 139.320312 C 276.890625 139.320312 279.238281 142.835938 278.066406 145.179688 C 276.890625 142.835938 273.367188 144.007812 274.542969 139.320312 Z M 274.542969 139.320312 " fill-opacity="1" fill-rule="evenodd"/><path fill="#d2ae6d" d="M 213.464844 139.320312 C 215.8125 136.976562 219.339844 139.320312 219.339844 142.835938 C 218.164062 140.492188 214.640625 142.835938 213.464844 139.320312 Z M 213.464844 139.320312 " fill-opacity="1" fill-rule="evenodd"/><path fill="#d2ae6d" d="M 222.863281 131.117188 C 224.035156 127.601562 228.734375 127.601562 229.910156 131.117188 C 227.558594 129.945312 226.386719 133.460938 222.863281 131.117188 Z M 222.863281 131.117188 " fill-opacity="1" fill-rule="evenodd"/><path fill="#d2ae6d" d="M 234.605469 119.398438 C 236.957031 117.054688 240.480469 119.398438 240.480469 122.914062 C 239.304688 120.570312 235.78125 122.914062 234.605469 119.398438 Z M 234.605469 119.398438 " fill-opacity="1" fill-rule="evenodd"/><path fill="#d2ae6d" d="M 233.433594 112.367188 C 233.433594 108.851562 238.128906 107.679688 239.304688 110.023438 C 236.957031 110.023438 235.78125 114.710938 233.433594 112.367188 Z M 233.433594 112.367188 " fill-opacity="1" fill-rule="evenodd"/><path fill="#d2ae6d" d="M 239.304688 101.820312 C 240.480469 99.476562 244.003906 99.476562 245.179688 102.992188 C 242.828125 101.820312 240.480469 105.335938 239.304688 101.820312 Z M 239.304688 101.820312 " fill-opacity="1" fill-rule="evenodd"/><path fill="#d2ae6d" d="M 247.527344 112.367188 C 249.875 112.367188 252.226562 108.851562 249.875 106.507812 C 248.703125 108.851562 245.179688 108.851562 247.527344 112.367188 Z M 247.527344 112.367188 " fill-opacity="1" fill-rule="evenodd"/><path fill="#d2ae6d" d="M 258.097656 108.851562 C 260.445312 107.679688 259.273438 104.164062 256.921875 102.992188 C 258.097656 105.335938 254.574219 106.507812 258.097656 108.851562 Z M 258.097656 108.851562 " fill-opacity="1" fill-rule="evenodd"/><path fill="#d2ae6d" d="M 213.464844 124.085938 C 212.289062 121.742188 215.8125 118.226562 218.164062 120.570312 C 216.988281 120.570312 216.988281 125.257812 213.464844 124.085938 Z M 213.464844 124.085938 " fill-opacity="1" fill-rule="evenodd"/><path fill="#d2ae6d" d="M 212.289062 112.367188 C 211.117188 108.851562 214.640625 106.507812 216.988281 107.679688 C 214.640625 108.851562 215.8125 112.367188 212.289062 112.367188 Z M 212.289062 112.367188 " fill-opacity="1" fill-rule="evenodd"/><path fill="#d2ae6d" d="M 214.640625 93.617188 C 215.8125 92.445312 219.339844 93.617188 218.164062 95.960938 C 216.988281 94.789062 214.640625 97.132812 214.640625 93.617188 Z M 214.640625 93.617188 " fill-opacity="1" fill-rule="evenodd"/><path fill="#d2ae6d" d="M 205.242188 152.210938 C 205.242188 148.695312 208.765625 146.351562 211.117188 147.523438 C 208.765625 148.695312 209.941406 152.210938 205.242188 152.210938 Z M 205.242188 152.210938 " fill-opacity="1" fill-rule="evenodd"/><path fill="#d2ae6d" d="M 227.558594 146.351562 C 225.210938 144.007812 227.558594 140.492188 231.082031 140.492188 C 228.734375 142.835938 231.082031 146.351562 227.558594 146.351562 Z M 227.558594 146.351562 " fill-opacity="1" fill-rule="evenodd"/><path fill="#d2ae6d" d="M 244.003906 139.320312 C 241.65625 136.976562 244.003906 132.289062 247.527344 133.460938 C 245.179688 134.632812 247.527344 138.148438 244.003906 139.320312 Z M 244.003906 139.320312 " fill-opacity="1" fill-rule="evenodd"/><path fill="#d2ae6d" d="M 255.75 133.460938 C 254.574219 131.117188 255.75 128.773438 258.097656 128.773438 C 256.921875 129.945312 258.097656 132.289062 255.75 133.460938 Z M 255.75 133.460938 " fill-opacity="1" fill-rule="evenodd"/><path fill="#d2ae6d" d="M 181.753906 147.523438 C 180.578125 144.007812 184.101562 141.664062 186.449219 142.835938 C 184.101562 144.007812 185.277344 147.523438 181.753906 147.523438 Z M 181.753906 147.523438 " fill-opacity="1" fill-rule="evenodd"/><path fill="#d2ae6d" d="M 178.230469 129.945312 C 178.230469 127.601562 181.753906 125.257812 184.101562 127.601562 C 181.753906 128.773438 181.753906 132.289062 178.230469 129.945312 Z M 178.230469 129.945312 " fill-opacity="1" fill-rule="evenodd"/><path fill="#d2ae6d" d="M 177.054688 115.882812 C 177.054688 113.539062 181.753906 112.367188 182.925781 114.710938 C 180.578125 114.710938 180.578125 118.226562 177.054688 115.882812 Z M 177.054688 115.882812 " fill-opacity="1" fill-rule="evenodd"/><path fill="#d2ae6d" d="M 182.925781 102.992188 C 182.925781 100.648438 186.449219 99.476562 187.625 100.648438 C 186.449219 101.820312 185.277344 105.335938 182.925781 102.992188 Z M 182.925781 102.992188 " fill-opacity="1" fill-rule="evenodd"/><path fill="#d2ae6d" d="M 205.242188 93.617188 C 205.242188 91.273438 202.894531 90.101562 201.71875 92.445312 C 202.894531 92.445312 202.894531 94.789062 205.242188 93.617188 Z M 205.242188 93.617188 " fill-opacity="1" fill-rule="evenodd"/><path fill="#d2ae6d" d="M 207.59375 102.992188 C 207.59375 100.648438 205.242188 100.648438 204.070312 101.820312 C 205.242188 101.820312 205.242188 105.335938 207.59375 102.992188 Z M 207.59375 102.992188 " fill-opacity="1" fill-rule="evenodd"/><path fill="#d2ae6d" d="M 182.925781 93.617188 C 182.925781 91.273438 186.449219 90.101562 187.625 92.445312 C 186.449219 92.445312 186.449219 94.789062 182.925781 93.617188 Z M 182.925781 93.617188 " fill-opacity="1" fill-rule="evenodd"/><path fill="#d2ae6d" d="M 181.753906 88.929688 C 181.753906 86.585938 179.402344 85.414062 177.054688 87.757812 C 179.402344 87.757812 179.402344 90.101562 181.753906 88.929688 Z M 181.753906 88.929688 " fill-opacity="1" fill-rule="evenodd"/><path fill="#d2ae6d" d="M 180.578125 105.335938 C 180.578125 102.992188 177.054688 101.820312 175.878906 102.992188 C 178.230469 102.992188 178.230469 106.507812 180.578125 105.335938 Z M 180.578125 105.335938 " fill-opacity="1" fill-rule="evenodd"/><path fill="#d2ae6d" d="M 170.007812 95.960938 C 168.832031 92.445312 173.53125 90.101562 175.878906 92.445312 C 173.53125 92.445312 173.53125 97.132812 170.007812 95.960938 Z M 170.007812 95.960938 " fill-opacity="1" fill-rule="evenodd"/><path fill="#d2ae6d" d="M 159.4375 95.960938 C 157.085938 93.617188 158.261719 90.101562 161.785156 88.929688 C 160.609375 91.273438 164.132812 94.789062 159.4375 95.960938 Z M 159.4375 95.960938 " fill-opacity="1" fill-rule="evenodd"/><path fill="#d2ae6d" d="M 164.132812 99.476562 C 161.785156 98.304688 159.4375 98.304688 158.261719 100.648438 C 160.609375 100.648438 161.785156 102.992188 164.132812 99.476562 Z M 164.132812 99.476562 " fill-opacity="1" fill-rule="evenodd"/><path fill="#d2ae6d" d="M 172.355469 110.023438 C 171.183594 107.679688 168.832031 107.679688 166.484375 110.023438 C 168.832031 110.023438 170.007812 112.367188 172.355469 110.023438 Z M 172.355469 110.023438 " fill-opacity="1" fill-rule="evenodd"/><path fill="#d2ae6d" d="M 174.707031 118.226562 C 173.53125 115.882812 171.183594 115.882812 168.832031 117.054688 C 171.183594 117.054688 172.355469 120.570312 174.707031 118.226562 Z M 174.707031 118.226562 " fill-opacity="1" fill-rule="evenodd"/><path fill="#d2ae6d" d="M 160.609375 131.117188 C 158.261719 127.601562 160.609375 124.085938 164.132812 125.257812 C 161.785156 126.429688 164.132812 129.945312 160.609375 131.117188 Z M 160.609375 131.117188 " fill-opacity="1" fill-rule="evenodd"/><path fill="#d2ae6d" d="M 154.738281 118.226562 C 153.5625 115.882812 155.914062 112.367188 159.4375 112.367188 C 157.085938 114.710938 159.4375 118.226562 154.738281 118.226562 Z M 154.738281 118.226562 " fill-opacity="1" fill-rule="evenodd"/><path fill="#d2ae6d" d="M 150.039062 110.023438 C 148.867188 107.679688 150.039062 105.335938 152.390625 105.335938 C 151.214844 106.507812 152.390625 108.851562 150.039062 110.023438 Z M 150.039062 110.023438 " fill-opacity="1" fill-rule="evenodd"/><path fill="#d2ae6d" d="M 139.46875 108.851562 C 135.945312 108.851562 135.945312 105.335938 137.121094 102.992188 C 137.121094 105.335938 140.644531 105.335938 139.46875 108.851562 Z M 139.46875 108.851562 " fill-opacity="1" fill-rule="evenodd"/><path fill="#d2ae6d" d="M 121.851562 118.226562 C 118.328125 117.054688 118.328125 112.367188 120.675781 111.195312 C 120.675781 113.539062 124.199219 114.710938 121.851562 118.226562 Z M 121.851562 118.226562 " fill-opacity="1" fill-rule="evenodd"/><path fill="#d2ae6d" d="M 118.328125 117.054688 C 115.976562 115.882812 111.28125 117.054688 112.453125 120.570312 C 113.628906 119.398438 117.152344 121.742188 118.328125 117.054688 Z M 118.328125 117.054688 " fill-opacity="1" fill-rule="evenodd"/><path fill="#d2ae6d" d="M 138.292969 108.851562 C 135.945312 106.507812 132.421875 108.851562 132.421875 112.367188 C 134.769531 111.195312 138.292969 113.539062 138.292969 108.851562 Z M 138.292969 108.851562 " fill-opacity="1" fill-rule="evenodd"/><path fill="#d2ae6d" d="M 154.738281 122.914062 C 153.5625 119.398438 148.867188 120.570312 147.691406 124.085938 C 150.039062 122.914062 152.390625 126.429688 154.738281 122.914062 Z M 154.738281 122.914062 " fill-opacity="1" fill-rule="evenodd"/><path fill="#d2ae6d" d="M 124.199219 162.757812 C 120.675781 162.757812 118.328125 167.445312 121.851562 170.960938 C 121.851562 167.445312 126.550781 167.445312 124.199219 162.757812 Z M 124.199219 162.757812 " fill-opacity="1" fill-rule="evenodd"/><path fill="#d2ae6d" d="M 133.597656 160.414062 C 130.074219 159.242188 127.722656 162.757812 128.898438 165.101562 C 130.074219 163.929688 134.769531 163.929688 133.597656 160.414062 Z M 133.597656 160.414062 " fill-opacity="1" fill-rule="evenodd"/><path fill="#d2ae6d" d="M 147.691406 159.242188 C 145.339844 159.242188 141.816406 162.757812 144.167969 165.101562 C 144.167969 162.757812 148.867188 163.929688 147.691406 159.242188 Z M 147.691406 159.242188 " fill-opacity="1" fill-rule="evenodd"/><path fill="#d2ae6d" d="M 161.785156 159.242188 C 158.261719 159.242188 155.914062 162.757812 157.085938 165.101562 C 158.261719 162.757812 161.785156 163.929688 161.785156 159.242188 Z M 161.785156 159.242188 " fill-opacity="1" fill-rule="evenodd"/><path fill="#d2ae6d" d="M 103.058594 154.554688 C 98.359375 154.554688 96.011719 160.414062 99.535156 162.757812 C 99.535156 160.414062 105.40625 159.242188 103.058594 154.554688 Z M 103.058594 154.554688 " fill-opacity="1" fill-rule="evenodd"/><path fill="#d2ae6d" d="M 113.628906 158.070312 C 110.105469 155.726562 106.582031 159.242188 107.757812 161.585938 C 110.105469 160.414062 113.628906 161.585938 113.628906 158.070312 Z M 113.628906 158.070312 " fill-opacity="1" fill-rule="evenodd"/><path fill="#d2ae6d" d="M 146.515625 140.492188 C 144.167969 141.664062 142.992188 145.179688 146.515625 147.523438 C 146.515625 145.179688 150.039062 144.007812 146.515625 140.492188 Z M 146.515625 140.492188 " fill-opacity="1" fill-rule="evenodd"/><path fill="#d2ae6d" d="M 155.914062 136.976562 C 152.390625 136.976562 151.214844 141.664062 154.738281 142.835938 C 154.738281 140.492188 158.261719 139.320312 155.914062 136.976562 Z M 155.914062 136.976562 " fill-opacity="1" fill-rule="evenodd"/><path fill="#d2ae6d" d="M 165.308594 138.148438 C 162.960938 136.976562 159.4375 139.320312 160.609375 141.664062 C 161.785156 140.492188 165.308594 142.835938 165.308594 138.148438 Z M 165.308594 138.148438 " fill-opacity="1" fill-rule="evenodd"/><path fill="#d2ae6d" d="M 172.355469 145.179688 C 171.183594 141.664062 166.484375 142.835938 165.308594 146.351562 C 167.65625 145.179688 170.007812 148.695312 172.355469 145.179688 Z M 172.355469 145.179688 " fill-opacity="1" fill-rule="evenodd"/><path fill="#d2ae6d" d="M 177.054688 153.382812 C 175.878906 149.867188 171.183594 149.867188 170.007812 153.382812 C 172.355469 152.210938 174.707031 155.726562 177.054688 153.382812 Z M 177.054688 153.382812 " fill-opacity="1" fill-rule="evenodd"/><path fill="#d2ae6d" d="M 133.597656 126.429688 C 131.246094 125.257812 127.722656 127.601562 128.898438 131.117188 C 130.074219 128.773438 133.597656 129.945312 133.597656 126.429688 Z M 133.597656 126.429688 " fill-opacity="1" fill-rule="evenodd"/><path fill="#d2ae6d" d="M 144.167969 128.773438 C 141.816406 127.601562 138.292969 129.945312 139.46875 133.460938 C 140.644531 131.117188 144.167969 133.460938 144.167969 128.773438 Z M 144.167969 128.773438 " fill-opacity="1" fill-rule="evenodd"/><path fill="#d2ae6d" d="M 195.847656 140.492188 C 195.847656 138.148438 191.148438 135.804688 188.800781 138.148438 C 191.148438 139.320312 191.148438 142.835938 195.847656 140.492188 Z M 195.847656 140.492188 " fill-opacity="1" fill-rule="evenodd"/><path fill="#d2ae6d" d="M 193.496094 121.742188 C 193.496094 118.226562 189.972656 117.054688 187.625 119.398438 C 189.972656 119.398438 189.972656 124.085938 193.496094 121.742188 Z M 193.496094 121.742188 " fill-opacity="1" fill-rule="evenodd"/><path fill="#d2ae6d" d="M 172.355469 167.445312 C 170.007812 163.929688 164.132812 165.101562 164.132812 169.789062 C 166.484375 167.445312 170.007812 172.132812 172.355469 167.445312 Z M 172.355469 167.445312 " fill-opacity="1" fill-rule="evenodd"/><path fill="#d2ae6d" d="M 208.765625 168.617188 C 208.765625 166.273438 212.289062 163.929688 214.640625 166.273438 C 212.289062 166.273438 212.289062 170.960938 208.765625 168.617188 Z M 208.765625 168.617188 " fill-opacity="1" fill-rule="evenodd"/><path fill="#d2ae6d" d="M 93.660156 168.617188 C 90.136719 169.789062 87.789062 166.273438 88.964844 163.929688 C 90.136719 165.101562 93.660156 163.929688 93.660156 168.617188 Z M 93.660156 168.617188 " fill-opacity="1" fill-rule="evenodd"/><path fill="#d2ae6d" d="M 133.597656 134.632812 C 130.074219 132.289062 126.550781 134.632812 127.722656 138.148438 C 128.898438 136.976562 132.421875 138.148438 133.597656 134.632812 Z M 133.597656 134.632812 " fill-opacity="1" fill-rule="evenodd"/><path fill="#d2ae6d" d="M 107.757812 131.117188 C 107.757812 128.773438 104.234375 127.601562 103.058594 129.945312 C 104.234375 129.945312 104.234375 133.460938 107.757812 131.117188 Z M 107.757812 131.117188 " fill-opacity="1" fill-rule="evenodd"/><path fill="#d2ae6d" d="M 119.5 128.773438 C 119.5 126.429688 115.976562 125.257812 114.804688 127.601562 C 115.976562 127.601562 117.152344 129.945312 119.5 128.773438 Z M 119.5 128.773438 " fill-opacity="1" fill-rule="evenodd"/><path fill="#d2ae6d" d="M 111.28125 132.289062 C 111.28125 134.632812 108.929688 135.804688 106.582031 133.460938 C 108.929688 133.460938 108.929688 131.117188 111.28125 132.289062 Z M 111.28125 132.289062 " fill-opacity="1" fill-rule="evenodd"/><path fill="#d2ae6d" d="M 135.945312 126.429688 C 132.421875 125.257812 132.421875 120.570312 134.769531 119.398438 C 134.769531 121.742188 138.292969 122.914062 135.945312 126.429688 Z M 135.945312 126.429688 " fill-opacity="1" fill-rule="evenodd"/><path fill="#d2ae6d" d="M 225.210938 121.742188 C 228.734375 119.398438 227.558594 112.367188 221.6875 112.367188 C 224.035156 114.710938 219.339844 119.398438 225.210938 121.742188 Z M 225.210938 121.742188 " fill-opacity="1" fill-rule="evenodd"/><path fill="#d2ae6d" d="M 216.988281 90.101562 C 220.511719 88.929688 219.339844 84.242188 215.8125 84.242188 C 216.988281 85.414062 213.464844 88.929688 216.988281 90.101562 Z M 216.988281 90.101562 " fill-opacity="1" fill-rule="evenodd"/><path fill="#d2ae6d" d="M 201.71875 128.773438 C 204.070312 125.257812 201.71875 121.742188 198.195312 122.914062 C 200.546875 124.085938 198.195312 127.601562 201.71875 128.773438 Z M 201.71875 128.773438 " fill-opacity="1" fill-rule="evenodd"/><g fill="#000000" fill-opacity="1"><g transform="translate(85.404042, 230.415527)"><g><path d="M 18.703125 -11.828125 C 18.515625 -11.492188 18.421875 -10.691406 18.421875 -9.421875 L 18.421875 -4.859375 C 18.421875 -3.472656 17.707031 -2.265625 16.28125 -1.234375 C 14.789062 -0.160156 12.96875 0.375 10.8125 0.375 C 7.820312 0.375 5.4375 -0.566406 3.65625 -2.453125 C 1.9375 -4.242188 1.078125 -6.523438 1.078125 -9.296875 C 1.078125 -12.242188 1.953125 -14.703125 3.703125 -16.671875 C 5.660156 -18.890625 8.359375 -20 11.796875 -20 C 14.085938 -20 15.898438 -19.554688 17.234375 -18.671875 L 17 -14.3125 L 16.875 -14.28125 C 16.53125 -14.882812 15.851562 -15.378906 14.84375 -15.765625 C 13.875 -16.117188 12.859375 -16.296875 11.796875 -16.296875 C 10.742188 -16.296875 9.820312 -16.128906 9.03125 -15.796875 C 8.238281 -15.460938 7.570312 -14.988281 7.03125 -14.375 C 5.863281 -13.101562 5.28125 -11.425781 5.28125 -9.34375 C 5.28125 -7.519531 5.789062 -6.054688 6.8125 -4.953125 C 7.832031 -3.859375 9.148438 -3.3125 10.765625 -3.3125 C 12.546875 -3.3125 13.75 -3.773438 14.375 -4.703125 C 14.570312 -5.003906 14.671875 -5.335938 14.671875 -5.703125 L 14.671875 -8.15625 L 12.765625 -8.15625 C 11.742188 -8.15625 11.1875 -8.066406 11.09375 -7.890625 L 11.046875 -7.90625 L 10.921875 -11.765625 C 11.191406 -11.679688 12.304688 -11.640625 14.265625 -11.640625 L 16.015625 -11.640625 C 17.085938 -11.640625 17.972656 -11.710938 18.671875 -11.859375 Z M 18.703125 -11.828125 "/></g></g></g><g fill="#000000" fill-opacity="1"><g transform="translate(109.755669, 230.415527)"><g><path d="M 8.875 -7.625 C 8.582031 -7.601562 8.269531 -7.59375 7.9375 -7.59375 C 7.601562 -7.59375 7.109375 -7.617188 6.453125 -7.671875 L 6.453125 0 L 2.53125 0 L 2.53125 -19.734375 C 3.914062 -19.910156 5.609375 -20 7.609375 -20 C 10.347656 -20 12.390625 -19.492188 13.734375 -18.484375 C 15.078125 -17.472656 15.75 -15.914062 15.75 -13.8125 C 15.75 -12.175781 15.132812 -10.78125 13.90625 -9.625 C 13.5 -9.25 13.035156 -8.921875 12.515625 -8.640625 L 15.515625 -2.296875 C 16.109375 -0.992188 16.5625 -0.21875 16.875 0.03125 L 16.8125 0.109375 C 15.851562 -0.046875 14.351562 -0.0390625 12.3125 0.125 Z M 7.890625 -16.515625 C 7.390625 -16.515625 6.910156 -16.488281 6.453125 -16.4375 L 6.453125 -10.796875 C 6.929688 -10.734375 7.492188 -10.703125 8.140625 -10.703125 C 8.796875 -10.703125 9.34375 -10.753906 9.78125 -10.859375 C 10.226562 -10.972656 10.613281 -11.148438 10.9375 -11.390625 C 11.632812 -11.910156 11.984375 -12.691406 11.984375 -13.734375 C 11.984375 -14.773438 11.617188 -15.507812 10.890625 -15.9375 C 10.210938 -16.320312 9.210938 -16.515625 7.890625 -16.515625 Z M 7.890625 -16.515625 "/></g></g></g><g fill="#000000" fill-opacity="1"><g transform="translate(131.584774, 230.415527)"><g><path d="M 12.40625 -3.546875 C 13.019531 -3.546875 13.441406 -3.601562 13.671875 -3.71875 L 13.734375 -3.703125 L 13.59375 0 L 2.53125 0 L 2.53125 -19.734375 C 2.800781 -19.710938 3.097656 -19.695312 3.421875 -19.6875 L 4.453125 -19.65625 C 5.140625 -19.632812 5.890625 -19.625 6.703125 -19.625 C 8.953125 -19.625 11.179688 -19.664062 13.390625 -19.75 C 13.273438 -18.875 13.21875 -17.71875 13.21875 -16.28125 C 13.21875 -16.113281 13.226562 -15.992188 13.25 -15.921875 L 13.21875 -15.875 C 12.707031 -16.019531 11.976562 -16.09375 11.03125 -16.09375 L 6.390625 -16.09375 L 6.390625 -12.328125 L 9.890625 -12.328125 C 10.972656 -12.328125 11.617188 -12.359375 11.828125 -12.421875 L 11.875 -8.78125 C 11.40625 -8.832031 10.796875 -8.859375 10.046875 -8.859375 L 6.390625 -8.859375 L 6.390625 -3.546875 Z M 12.40625 -3.546875 "/></g></g></g><g fill="#000000" fill-opacity="1"><g transform="translate(150.950362, 230.415527)"><g><path d="M 12.40625 -3.546875 C 13.019531 -3.546875 13.441406 -3.601562 13.671875 -3.71875 L 13.734375 -3.703125 L 13.59375 0 L 2.53125 0 L 2.53125 -19.734375 C 2.800781 -19.710938 3.097656 -19.695312 3.421875 -19.6875 L 4.453125 -19.65625 C 5.140625 -19.632812 5.890625 -19.625 6.703125 -19.625 C 8.953125 -19.625 11.179688 -19.664062 13.390625 -19.75 C 13.273438 -18.875 13.21875 -17.71875 13.21875 -16.28125 C 13.21875 -16.113281 13.226562 -15.992188 13.25 -15.921875 L 13.21875 -15.875 C 12.707031 -16.019531 11.976562 -16.09375 11.03125 -16.09375 L 6.390625 -16.09375 L 6.390625 -12.328125 L 9.890625 -12.328125 C 10.972656 -12.328125 11.617188 -12.359375 11.828125 -12.421875 L 11.875 -8.78125 C 11.40625 -8.832031 10.796875 -8.859375 10.046875 -8.859375 L 6.390625 -8.859375 L 6.390625 -3.546875 Z M 12.40625 -3.546875 "/></g></g></g><g fill="#000000" fill-opacity="1"><g transform="translate(170.315949, 230.415527)"><g><path d="M 2.671875 0 C 2.734375 -0.332031 2.765625 -0.695312 2.765625 -1.09375 L 2.765625 -19.625 L 5.703125 -19.625 L 13.53125 -7.3125 L 13.53125 -18.625 C 13.53125 -19.164062 13.484375 -19.5 13.390625 -19.625 L 17.359375 -19.625 C 17.316406 -19.226562 17.296875 -18.796875 17.296875 -18.328125 L 17.296875 0 L 14.21875 0 L 6.515625 -11.8125 L 6.515625 0 Z M 2.671875 0 "/></g></g></g><g fill="#000000" fill-opacity="1"><g transform="translate(194.593819, 230.415527)"><g/></g></g><g fill="#000000" fill-opacity="1"><g transform="translate(208.840603, 230.415527)"><g><path d="M 3.96875 0.125 C 3.125 0.0390625 2.132812 0 1 0 L -0.15625 0 L 6.25 -17.984375 C 6.539062 -18.796875 6.6875 -19.265625 6.6875 -19.390625 C 6.6875 -19.523438 6.679688 -19.609375 6.671875 -19.640625 L 6.6875 -19.671875 C 7.320312 -19.640625 8 -19.625 8.71875 -19.625 C 9.3125 -19.625 10.019531 -19.632812 10.84375 -19.65625 L 10.859375 -19.625 C 10.835938 -19.582031 10.828125 -19.53125 10.828125 -19.46875 C 10.828125 -19.28125 10.972656 -18.78125 11.265625 -17.96875 L 17.828125 0.046875 C 17.628906 0.0351562 17.394531 0.03125 17.125 0.03125 C 17.125 0.03125 16.867188 0.0195312 16.359375 0 C 16.117188 0 15.898438 0 15.703125 0 L 13.40625 0 L 12.03125 -4.25 L 5.359375 -4.25 Z M 10.875 -7.796875 L 8.640625 -14.65625 L 6.484375 -7.796875 Z M 10.875 -7.796875 "/></g></g></g><g fill="#000000" fill-opacity="1"><g transform="translate(230.728714, 230.415527)"><g><path d="M 14.9375 -1.4375 C 14.21875 -0.863281 13.28125 -0.414062 12.125 -0.09375 C 10.976562 0.21875 9.566406 0.375 7.890625 0.375 C 6.210938 0.375 4.425781 0.21875 2.53125 -0.09375 L 2.53125 -19.53125 C 4.445312 -19.84375 6.101562 -20 7.5 -20 C 8.90625 -20 10.054688 -19.863281 10.953125 -19.59375 C 11.859375 -19.332031 12.59375 -18.972656 13.15625 -18.515625 C 14.28125 -17.640625 14.84375 -16.503906 14.84375 -15.109375 C 14.84375 -13.722656 14.335938 -12.570312 13.328125 -11.65625 C 14.523438 -11.28125 15.453125 -10.570312 16.109375 -9.53125 C 16.710938 -8.59375 17.015625 -7.554688 17.015625 -6.421875 C 17.015625 -5.285156 16.847656 -4.3125 16.515625 -3.5 C 16.191406 -2.695312 15.664062 -2.007812 14.9375 -1.4375 Z M 6.453125 -12.203125 C 6.859375 -12.128906 7.367188 -12.09375 7.984375 -12.09375 C 8.609375 -12.09375 9.117188 -12.175781 9.515625 -12.34375 C 9.921875 -12.507812 10.234375 -12.710938 10.453125 -12.953125 C 10.804688 -13.359375 10.984375 -13.921875 10.984375 -14.640625 C 10.984375 -16.140625 10.097656 -16.890625 8.328125 -16.890625 C 7.578125 -16.890625 6.953125 -16.863281 6.453125 -16.8125 Z M 8.625 -9.046875 C 7.800781 -9.046875 7.078125 -8.988281 6.453125 -8.875 L 6.453125 -3.078125 C 7.140625 -2.898438 7.859375 -2.8125 8.609375 -2.8125 C 9.367188 -2.8125 10.035156 -2.898438 10.609375 -3.078125 C 11.191406 -3.265625 11.675781 -3.519531 12.0625 -3.84375 C 12.863281 -4.488281 13.265625 -5.3125 13.265625 -6.3125 C 13.265625 -8.132812 11.71875 -9.046875 8.625 -9.046875 Z M 8.625 -9.046875 "/></g></g></g><g fill="#000000" fill-opacity="1"><g transform="translate(252.616816, 230.415527)"><g><path d="M 12.40625 -3.546875 C 13.019531 -3.546875 13.441406 -3.601562 13.671875 -3.71875 L 13.734375 -3.703125 L 13.59375 0 L 2.53125 0 L 2.53125 -19.734375 C 2.800781 -19.710938 3.097656 -19.695312 3.421875 -19.6875 L 4.453125 -19.65625 C 5.140625 -19.632812 5.890625 -19.625 6.703125 -19.625 C 8.953125 -19.625 11.179688 -19.664062 13.390625 -19.75 C 13.273438 -18.875 13.21875 -17.71875 13.21875 -16.28125 C 13.21875 -16.113281 13.226562 -15.992188 13.25 -15.921875 L 13.21875 -15.875 C 12.707031 -16.019531 11.976562 -16.09375 11.03125 -16.09375 L 6.390625 -16.09375 L 6.390625 -12.328125 L 9.890625 -12.328125 C 10.972656 -12.328125 11.617188 -12.359375 11.828125 -12.421875 L 11.875 -8.78125 C 11.40625 -8.832031 10.796875 -8.859375 10.046875 -8.859375 L 6.390625 -8.859375 L 6.390625 -3.546875 Z M 12.40625 -3.546875 "/></g></g></g><g fill="#000000" fill-opacity="1"><g transform="translate(271.982412, 230.415527)"><g><path d="M 14.390625 -18.53125 L 14.109375 -14.1875 L 14 -14.171875 C 13.269531 -15.253906 12.03125 -15.960938 10.28125 -16.296875 C 9.726562 -16.398438 9.195312 -16.453125 8.6875 -16.453125 C 8.1875 -16.453125 7.753906 -16.40625 7.390625 -16.3125 C 7.035156 -16.226562 6.734375 -16.101562 6.484375 -15.9375 C 5.941406 -15.582031 5.671875 -15.117188 5.671875 -14.546875 C 5.671875 -13.796875 5.90625 -13.234375 6.375 -12.859375 C 6.96875 -12.410156 7.945312 -12.09375 9.3125 -11.90625 C 10.675781 -11.726562 11.769531 -11.484375 12.59375 -11.171875 C 13.425781 -10.859375 14.109375 -10.457031 14.640625 -9.96875 C 15.640625 -9.0625 16.140625 -7.785156 16.140625 -6.140625 C 16.140625 -3.972656 15.320312 -2.304688 13.6875 -1.140625 C 12.289062 -0.128906 10.53125 0.375 8.40625 0.375 C 6.695312 0.375 5.003906 0.046875 3.328125 -0.609375 C 2.785156 -0.816406 2.304688 -1.066406 1.890625 -1.359375 L 2.046875 -6.28125 L 2.109375 -6.328125 C 3.328125 -4.222656 5.328125 -3.171875 8.109375 -3.171875 C 10.085938 -3.171875 11.398438 -3.648438 12.046875 -4.609375 C 12.253906 -4.929688 12.359375 -5.289062 12.359375 -5.6875 C 12.359375 -6.082031 12.296875 -6.410156 12.171875 -6.671875 C 12.046875 -6.929688 11.832031 -7.15625 11.53125 -7.34375 C 10.96875 -7.71875 10.007812 -7.96875 8.65625 -8.09375 C 7.3125 -8.226562 6.210938 -8.472656 5.359375 -8.828125 C 4.503906 -9.179688 3.820312 -9.617188 3.3125 -10.140625 C 2.382812 -11.078125 1.921875 -12.394531 1.921875 -14.09375 C 1.921875 -15.84375 2.535156 -17.257812 3.765625 -18.34375 C 5.015625 -19.445312 6.695312 -20 8.8125 -20 C 10.9375 -20 12.796875 -19.507812 14.390625 -18.53125 Z M 14.390625 -18.53125 "/></g></g></g></svg>