<?xml version="1.0" encoding="UTF-8"?>
<svg xmlns="http://www.w3.org/2000/svg" xmlns:xlink="http://www.w3.org/1999/xlink" width="200px" height="200px" viewBox="0 0 200 200" version="1.1">
<defs>
<clipPath id="clip1">
  <path d="M 95.464844 33.914062 L 130.667969 33.914062 L 130.667969 77.867188 L 95.464844 77.867188 Z M 95.464844 33.914062 "/>
</clipPath>
<clipPath id="clip2">
  <path d="M 64.066406 68.265625 L 148.863281 68.265625 L 148.863281 116.316406 L 64.066406 116.316406 Z M 64.066406 68.265625 "/>
</clipPath>
<clipPath id="clip3">
  <path d="M 63.847656 111.238281 L 149.140625 111.238281 L 149.140625 121.351562 L 63.847656 121.351562 Z M 63.847656 111.238281 "/>
</clipPath>
<clipPath id="clip4">
  <path d="M 106.476562 111.238281 C 82.929688 111.238281 63.847656 113.503906 63.847656 116.296875 C 63.847656 119.089844 82.929688 121.351562 106.476562 121.351562 C 130.015625 121.351562 149.101562 119.089844 149.101562 116.296875 C 149.101562 113.503906 130.015625 111.238281 106.476562 111.238281 Z M 106.476562 111.238281 "/>
</clipPath>
</defs>
<g id="surface1">
<g clip-path="url(#clip1)" clip-rule="nonzero">
<path style=" stroke:none;fill-rule:nonzero;fill:rgb(30.980392%,29.803922%,29.803922%);fill-opacity:1;" d="M 102.578125 33.929688 C 102.550781 33.933594 102.5 33.933594 102.472656 33.929688 C 100.238281 33.910156 98.289062 36.839844 97.078125 40.035156 C 95.847656 43.285156 95.355469 46.78125 95.597656 49.160156 C 95.945312 52.371094 97.386719 54.101562 99.269531 55.492188 C 100.707031 56.484375 101.527344 59.078125 101.429688 61.761719 C 101.242188 67.035156 101.027344 72.273438 100.742188 77.449219 C 101.742188 76.15625 102.851562 74.886719 104.113281 73.644531 C 103.917969 69.710938 103.761719 65.746094 103.617188 61.761719 C 103.519531 59.078125 104.347656 56.484375 105.78125 55.492188 C 107.664062 54.101562 109.109375 52.371094 109.453125 49.160156 C 109.695312 46.78125 109.203125 43.285156 107.972656 40.035156 C 106.761719 36.839844 104.808594 33.910156 102.578125 33.929688 Z M 129.90625 34.503906 C 129.871094 34.175781 129.597656 33.929688 129.269531 33.929688 C 128.914062 33.929688 128.625 34.21875 128.625 34.574219 L 128.625 50.152344 C 128.625 50.480469 128.40625 50.773438 128.089844 50.839844 C 127.652344 50.929688 127.265625 50.597656 127.265625 50.175781 L 127.265625 34.574219 C 127.265625 34.21875 126.980469 33.929688 126.621094 33.929688 L 126.152344 33.929688 C 125.796875 33.929688 125.507812 34.21875 125.507812 34.574219 L 125.507812 50.152344 C 125.507812 50.480469 125.292969 50.773438 124.976562 50.839844 C 124.539062 50.929688 124.152344 50.597656 124.152344 50.175781 L 124.152344 34.574219 C 124.152344 34.21875 123.863281 33.929688 123.507812 33.929688 L 123.039062 33.929688 C 122.683594 33.929688 122.394531 34.21875 122.394531 34.574219 L 122.394531 50.152344 C 122.394531 50.480469 122.175781 50.773438 121.859375 50.839844 C 121.421875 50.929688 121.039062 50.597656 121.039062 50.175781 L 121.039062 34.574219 C 121.039062 34.21875 120.746094 33.929688 120.394531 33.929688 L 119.921875 33.929688 C 119.570312 33.929688 119.28125 34.21875 119.28125 34.574219 L 119.28125 50.152344 C 119.28125 50.480469 119.0625 50.773438 118.746094 50.839844 C 118.308594 50.929688 117.921875 50.597656 117.921875 50.175781 L 117.921875 34.574219 C 117.921875 34.21875 117.632812 33.929688 117.277344 33.929688 C 116.953125 33.929688 116.675781 34.175781 116.640625 34.503906 C 116.308594 37.546875 116.207031 47.816406 116.347656 49.160156 C 116.691406 52.371094 118.136719 54.101562 120.015625 55.492188 C 121.453125 56.484375 122.277344 59.078125 122.179688 61.761719 C 122.164062 62.1875 122.148438 62.613281 122.132812 63.039062 C 122.910156 62.699219 123.660156 62.359375 124.378906 62.019531 C 124.371094 61.929688 124.371094 61.847656 124.367188 61.761719 C 124.269531 59.078125 125.09375 56.484375 126.53125 55.492188 C 128.410156 54.101562 129.855469 52.371094 130.199219 49.160156 C 130.335938 47.816406 130.238281 37.546875 129.90625 34.503906 "/>
</g>
<path style=" stroke:none;fill-rule:nonzero;fill:rgb(50.196078%,80%,15.686275%);fill-opacity:1;" d="M 132.789062 66.539062 C 132.789062 66.539062 123.257812 91.144531 88.679688 99.308594 C 98.835938 87.964844 98.140625 74.429688 119.734375 65.875 C 130.769531 61.503906 137.117188 56.550781 137.117188 56.550781 C 137.117188 56.550781 136.828125 109.949219 99.457031 99.542969 C 99.457031 99.542969 123.691406 94.355469 132.789062 66.539062 "/>
<path style=" stroke:none;fill-rule:nonzero;fill:rgb(25.098039%,72.54902%,23.529412%);fill-opacity:1;" d="M 78.644531 52.410156 C 78.644531 52.410156 79.324219 68.769531 97.992188 80.488281 C 94.296875 71.792969 97.417969 63.984375 86.449219 54.636719 C 80.839844 49.859375 78.105469 45.679688 78.105469 45.679688 C 78.105469 45.679688 67.589844 77.097656 91.617188 78.46875 C 91.617188 78.46875 78.425781 70.570312 78.644531 52.410156 "/>
<g clip-path="url(#clip2)" clip-rule="nonzero">
<path style=" stroke:none;fill-rule:nonzero;fill:rgb(22.352941%,20.784314%,21.176471%);fill-opacity:1;" d="M 126.175781 110.335938 L 126.164062 110.320312 L 126.195312 110.347656 C 126.191406 110.347656 126.203125 110.355469 126.175781 110.335938 Z M 86.730469 110.34375 L 86.765625 110.308594 L 86.746094 110.332031 C 86.722656 110.351562 86.734375 110.34375 86.730469 110.34375 Z M 148.675781 68.382812 C 148.546875 69.382812 148.429688 70.375 148.316406 71.363281 C 148.152344 72.351562 147.945312 73.328125 147.785156 74.300781 C 147.582031 75.273438 147.308594 76.226562 147.074219 77.183594 C 146.972656 77.664062 146.78125 78.128906 146.636719 78.597656 C 146.480469 79.0625 146.335938 79.535156 146.1875 80 C 146.054688 80.472656 145.847656 80.921875 145.671875 81.378906 L 145.132812 82.742188 C 144.96875 83.203125 144.734375 83.636719 144.527344 84.078125 L 143.894531 85.394531 C 143.699219 85.839844 143.433594 86.253906 143.203125 86.679688 L 142.496094 87.949219 C 142.273438 88.382812 141.988281 88.777344 141.730469 89.183594 L 140.9375 90.398438 C 140.6875 90.8125 140.378906 91.1875 140.097656 91.578125 L 139.234375 92.734375 C 138.957031 93.132812 138.617188 93.480469 138.3125 93.851562 L 137.378906 94.945312 C 136.742188 95.664062 136.046875 96.328125 135.390625 97.019531 C 134.703125 97.6875 133.972656 98.304688 133.269531 98.949219 C 132.542969 99.566406 131.777344 100.140625 131.039062 100.734375 C 130.261719 101.289062 129.46875 101.8125 128.691406 102.355469 L 126.246094 103.808594 L 123.710938 105.089844 L 118.683594 107.632812 L 124.074219 109.378906 L 124.121094 109.394531 C 123.710938 109.511719 123.277344 109.617188 122.84375 109.714844 C 121.824219 109.949219 120.761719 110.132812 119.6875 110.289062 C 117.535156 110.601562 115.332031 110.789062 113.121094 110.925781 C 112.015625 110.992188 110.910156 111.042969 109.796875 111.070312 C 108.675781 111.101562 107.605469 111.109375 106.449219 111.113281 C 105.363281 111.113281 104.234375 111.101562 103.132812 111.074219 C 102.019531 111.042969 100.910156 110.992188 99.804688 110.925781 C 97.597656 110.789062 95.394531 110.605469 93.242188 110.292969 C 92.167969 110.136719 91.101562 109.953125 90.082031 109.722656 C 89.644531 109.621094 89.203125 109.511719 88.785156 109.394531 L 88.855469 109.371094 L 94.226562 107.628906 L 89.210938 105.097656 L 86.679688 103.816406 L 84.234375 102.359375 C 83.453125 101.820312 82.660156 101.296875 81.886719 100.742188 C 81.144531 100.144531 80.386719 99.570312 79.652344 98.957031 C 78.949219 98.3125 78.21875 97.695312 77.535156 97.027344 C 76.875 96.332031 76.179688 95.667969 75.546875 94.949219 L 74.609375 93.855469 C 74.304688 93.484375 73.960938 93.136719 73.691406 92.738281 L 72.828125 91.582031 C 72.546875 91.191406 72.234375 90.816406 71.984375 90.402344 L 71.195312 89.1875 C 70.933594 88.777344 70.648438 88.382812 70.425781 87.953125 L 69.71875 86.679688 C 69.484375 86.257812 69.222656 85.84375 69.027344 85.398438 L 68.394531 84.078125 C 68.1875 83.636719 67.953125 83.203125 67.792969 82.742188 L 67.25 81.382812 C 67.074219 80.921875 66.867188 80.472656 66.734375 80.003906 L 66.285156 78.597656 C 66.140625 78.128906 65.953125 77.667969 65.847656 77.183594 C 65.617188 76.230469 65.34375 75.269531 65.140625 74.304688 C 64.980469 73.332031 64.773438 72.363281 64.609375 71.371094 C 64.496094 70.375 64.382812 69.378906 64.25 68.382812 C 64.191406 69.386719 64.148438 70.386719 64.105469 71.390625 C 64.105469 72.394531 64.148438 73.414062 64.191406 74.429688 C 64.257812 75.445312 64.398438 76.449219 64.503906 77.464844 C 64.546875 77.976562 64.671875 78.46875 64.753906 78.972656 L 65.042969 80.476562 C 65.128906 80.984375 65.285156 81.472656 65.410156 81.964844 L 65.816406 83.453125 C 65.933594 83.953125 66.121094 84.429688 66.285156 84.917969 L 66.792969 86.378906 C 67.132812 87.351562 67.585938 88.277344 67.992188 89.230469 C 68.183594 89.710938 68.445312 90.160156 68.679688 90.617188 L 69.398438 91.996094 C 69.625 92.464844 69.925781 92.890625 70.191406 93.335938 L 71.015625 94.660156 C 71.277344 95.109375 71.609375 95.511719 71.902344 95.941406 L 72.820312 97.207031 C 73.453125 98.035156 74.148438 98.808594 74.816406 99.617188 C 75.511719 100.394531 76.257812 101.128906 76.980469 101.886719 C 77.738281 102.609375 78.539062 103.289062 79.320312 103.992188 C 80.132812 104.652344 80.972656 105.28125 81.804688 105.929688 C 82.324219 106.289062 82.851562 106.636719 83.378906 106.984375 C 83.324219 107.035156 83.269531 107.089844 83.210938 107.160156 C 83.101562 107.285156 82.996094 107.398438 82.886719 107.570312 C 82.828125 107.648438 82.777344 107.730469 82.726562 107.808594 C 82.671875 107.90625 82.621094 108.007812 82.574219 108.109375 C 82.476562 108.296875 82.398438 108.558594 82.335938 108.804688 C 82.308594 108.925781 82.292969 109.070312 82.28125 109.199219 L 82.265625 109.40625 L 82.265625 109.457031 C 82.257812 109.414062 82.300781 110.054688 82.285156 109.789062 L 82.289062 109.816406 L 82.296875 109.921875 L 82.304688 109.976562 L 82.308594 110.007812 L 82.332031 110.128906 C 82.398438 110.441406 82.523438 110.796875 82.660156 111.046875 C 82.753906 111.214844 82.859375 111.382812 82.972656 111.542969 C 83.082031 111.695312 83.179688 111.792969 83.292969 111.917969 C 83.34375 111.972656 83.402344 112.035156 83.453125 112.082031 L 83.601562 112.214844 C 83.699219 112.300781 83.804688 112.390625 83.902344 112.46875 L 84.179688 112.664062 C 84.554688 112.921875 84.890625 113.101562 85.226562 113.265625 C 86.539062 113.894531 87.730469 114.234375 88.925781 114.550781 C 90.121094 114.847656 91.296875 115.070312 92.472656 115.265625 C 94.816406 115.644531 97.148438 115.910156 99.480469 116.058594 C 100.644531 116.136719 101.808594 116.195312 102.972656 116.234375 C 104.140625 116.269531 105.289062 116.292969 106.476562 116.296875 C 107.597656 116.296875 108.800781 116.273438 109.957031 116.234375 C 111.117188 116.195312 112.285156 116.136719 113.449219 116.058594 C 115.78125 115.910156 118.113281 115.652344 120.457031 115.269531 C 121.632812 115.074219 122.808594 114.851562 124.003906 114.550781 C 125.199219 114.242188 126.390625 113.898438 127.707031 113.269531 C 128.039062 113.105469 128.378906 112.925781 128.753906 112.667969 L 129.027344 112.472656 C 129.128906 112.394531 129.234375 112.304688 129.332031 112.222656 L 129.480469 112.085938 C 129.53125 112.039062 129.585938 111.976562 129.640625 111.921875 C 129.753906 111.796875 129.847656 111.699219 129.960938 111.546875 C 130.074219 111.386719 130.179688 111.222656 130.273438 111.050781 C 130.378906 110.851562 130.46875 110.617188 130.539062 110.390625 C 130.609375 110.160156 130.648438 109.871094 130.664062 109.609375 L 130.667969 109.507812 C 130.679688 109.691406 130.660156 109.195312 130.660156 109.242188 L 130.660156 109.230469 L 130.652344 109.175781 L 130.644531 109.125 L 130.628906 109 C 130.582031 108.667969 130.441406 108.253906 130.359375 108.109375 C 130.3125 108.007812 130.261719 107.902344 130.207031 107.808594 C 130.15625 107.726562 130.101562 107.644531 130.046875 107.566406 C 129.933594 107.394531 129.832031 107.28125 129.722656 107.15625 C 129.664062 107.089844 129.609375 107.035156 129.558594 106.984375 C 130.085938 106.640625 130.613281 106.292969 131.128906 105.933594 C 131.957031 105.289062 132.800781 104.660156 133.613281 103.996094 C 134.394531 103.292969 135.195312 102.613281 135.953125 101.894531 C 136.675781 101.132812 137.421875 100.398438 138.117188 99.621094 C 138.785156 98.816406 139.484375 98.039062 140.113281 97.210938 L 141.027344 95.945312 C 141.324219 95.515625 141.65625 95.113281 141.917969 94.664062 L 142.742188 93.339844 C 143.011719 92.894531 143.308594 92.46875 143.535156 92 L 144.253906 90.621094 C 144.488281 90.164062 144.746094 89.714844 144.945312 89.234375 L 145.566406 87.816406 C 145.765625 87.339844 145.984375 86.871094 146.140625 86.378906 L 146.648438 84.921875 C 146.808594 84.429688 147 83.957031 147.117188 83.453125 L 147.519531 81.96875 C 147.648438 81.472656 147.804688 80.984375 147.890625 80.480469 C 148.078125 79.472656 148.300781 78.476562 148.425781 77.464844 C 148.53125 76.449219 148.671875 75.445312 148.742188 74.433594 C 148.78125 73.417969 148.824219 72.40625 148.824219 71.398438 C 148.78125 70.386719 148.738281 69.382812 148.675781 68.382812 "/>
</g>
<g clip-path="url(#clip3)" clip-rule="nonzero">
<g clip-path="url(#clip4)" clip-rule="nonzero">
<path style=" stroke:none;fill-rule:nonzero;fill:rgb(22.352941%,20.784314%,21.176471%);fill-opacity:1;" d="M 63.847656 111.238281 L 149.101562 111.238281 L 149.101562 121.351562 L 63.847656 121.351562 Z M 63.847656 111.238281 "/>
</g>
</g>
<path style=" stroke:none;fill-rule:nonzero;fill:rgb(23.529412%,65.098039%,21.960784%);fill-opacity:1;" d="M 68.347656 123.222656 C 70.035156 123.222656 71.558594 123.480469 72.90625 123.992188 C 74.257812 124.503906 75.324219 125.257812 76.117188 126.257812 C 76.910156 127.253906 77.308594 128.464844 77.308594 129.898438 L 71.90625 129.898438 C 71.90625 129.164062 71.582031 128.574219 70.933594 128.125 C 70.285156 127.667969 69.503906 127.441406 68.582031 127.441406 C 67.25 127.441406 66.242188 127.796875 65.558594 128.507812 C 64.878906 129.214844 64.539062 130.214844 64.539062 131.515625 L 64.539062 133.15625 C 64.539062 134.453125 64.878906 135.453125 65.558594 136.164062 C 66.242188 136.871094 67.25 137.222656 68.582031 137.222656 C 69.503906 137.222656 70.285156 137.007812 70.933594 136.574219 C 71.582031 136.136719 71.90625 135.574219 71.90625 134.890625 L 67.914062 134.890625 L 67.914062 131.308594 L 77.308594 131.308594 L 77.308594 141.140625 L 74.390625 141.140625 L 73.832031 139.398438 C 72.226562 140.765625 70.125 141.449219 67.53125 141.449219 C 64.617188 141.449219 62.417969 140.6875 60.949219 139.15625 C 59.480469 137.628906 58.75 135.355469 58.75 132.332031 C 58.75 129.347656 59.578125 127.085938 61.242188 125.539062 C 62.90625 123.996094 65.277344 123.222656 68.347656 123.222656 Z M 68.347656 123.222656 "/>
<path style=" stroke:none;fill-rule:nonzero;fill:rgb(23.529412%,65.098039%,21.960784%);fill-opacity:1;" d="M 98.039062 128.933594 C 98.039062 130.003906 97.746094 130.976562 97.164062 131.847656 C 96.585938 132.722656 95.742188 133.359375 94.640625 133.765625 L 98.554688 141.140625 L 92.207031 141.140625 L 89.082031 134.714844 L 86.980469 134.714844 L 86.980469 141.140625 L 81.324219 141.140625 L 81.324219 123.523438 L 92.105469 123.523438 C 93.367188 123.523438 94.445312 123.769531 95.339844 124.257812 C 96.238281 124.746094 96.914062 125.40625 97.363281 126.230469 C 97.8125 127.0625 98.039062 127.960938 98.039062 128.933594 Z M 92.28125 129.15625 C 92.28125 128.695312 92.125 128.3125 91.824219 128.007812 C 91.515625 127.703125 91.140625 127.546875 90.699219 127.546875 L 86.980469 127.546875 L 86.980469 130.796875 L 90.699219 130.796875 C 91.140625 130.796875 91.515625 130.640625 91.824219 130.324219 C 92.125 130.007812 92.28125 129.621094 92.28125 129.15625 Z M 92.28125 129.15625 "/>
<path style=" stroke:none;fill-rule:nonzero;fill:rgb(23.529412%,65.098039%,21.960784%);fill-opacity:1;" d="M 101.746094 123.523438 L 116.980469 123.523438 L 116.980469 127.75 L 107.40625 127.75 L 107.40625 130.183594 L 115.597656 130.183594 L 115.597656 134.230469 L 107.40625 134.230469 L 107.40625 136.914062 L 117.164062 136.914062 L 117.164062 141.140625 L 101.746094 141.140625 Z M 101.746094 123.523438 "/>
<path style=" stroke:none;fill-rule:nonzero;fill:rgb(23.529412%,65.098039%,21.960784%);fill-opacity:1;" d="M 120.738281 123.523438 L 135.972656 123.523438 L 135.972656 127.75 L 126.394531 127.75 L 126.394531 130.183594 L 134.589844 130.183594 L 134.589844 134.230469 L 126.394531 134.230469 L 126.394531 136.914062 L 136.15625 136.914062 L 136.15625 141.140625 L 120.738281 141.140625 Z M 120.738281 123.523438 "/>
<path style=" stroke:none;fill-rule:nonzero;fill:rgb(23.529412%,65.098039%,21.960784%);fill-opacity:1;" d="M 152.328125 141.140625 L 144.929688 132.589844 L 144.929688 141.140625 L 139.730469 141.140625 L 139.730469 123.523438 L 144.671875 123.523438 L 152.070312 132.207031 L 152.070312 123.523438 L 157.269531 123.523438 L 157.269531 141.140625 Z M 152.328125 141.140625 "/>
<path style=" stroke:none;fill-rule:nonzero;fill:rgb(22.352941%,20.784314%,21.176471%);fill-opacity:1;" d="M 92.121094 151.863281 L 93.183594 151.863281 L 93.84375 149.980469 L 97.65625 149.980469 L 98.320312 151.863281 L 99.367188 151.863281 L 96.128906 143.1875 L 95.378906 143.1875 Z M 94.167969 149.089844 L 95.761719 144.621094 L 97.324219 149.089844 Z M 94.167969 149.089844 "/>
<path style=" stroke:none;fill-rule:nonzero;fill:rgb(22.352941%,20.784314%,21.176471%);fill-opacity:1;" d="M 103.972656 151.863281 L 106.820312 151.863281 C 108.191406 151.863281 109.578125 151.28125 109.578125 149.550781 C 109.578125 148.339844 108.925781 147.671875 108.03125 147.269531 C 108.675781 146.894531 109.15625 146.308594 109.15625 145.339844 C 109.15625 143.757812 107.757812 143.1875 106.371094 143.1875 L 103.972656 143.1875 Z M 104.921875 147.007812 L 104.921875 144.0625 L 106.382812 144.0625 C 107.328125 144.0625 108.140625 144.34375 108.140625 145.46875 C 108.140625 146.550781 107.347656 147.007812 106.371094 147.007812 Z M 104.921875 150.964844 L 104.921875 147.878906 L 106.863281 147.878906 C 107.777344 147.878906 108.621094 148.25 108.621094 149.496094 C 108.621094 150.65625 107.769531 150.964844 106.84375 150.964844 Z M 104.921875 150.964844 "/>
<path style=" stroke:none;fill-rule:nonzero;fill:rgb(22.352941%,20.784314%,21.176471%);fill-opacity:1;" d="M 114.523438 151.863281 L 120.140625 151.863281 L 120.140625 150.976562 L 115.5 150.976562 L 115.5 147.929688 L 119.53125 147.929688 L 119.53125 147.113281 L 115.5 147.113281 L 115.5 144.03125 L 120.140625 144.03125 L 120.140625 143.1875 L 114.523438 143.1875 Z M 114.523438 151.863281 "/>
<path style=" stroke:none;fill-rule:nonzero;fill:rgb(22.352941%,20.784314%,21.176471%);fill-opacity:1;" d="M 127.25 151.964844 C 128.792969 151.964844 129.960938 150.992188 129.960938 149.46875 C 129.960938 146.667969 125.777344 147.121094 125.777344 145.171875 C 125.777344 144.378906 126.445312 143.902344 127.171875 143.902344 C 127.867188 143.902344 128.507812 144.21875 128.859375 144.902344 L 129.589844 144.410156 C 129.050781 143.488281 128.203125 143.058594 127.183594 143.058594 C 125.894531 143.058594 124.832031 143.925781 124.832031 145.257812 C 124.832031 147.898438 129.015625 147.300781 129.015625 149.542969 C 129.015625 150.59375 128.296875 151.097656 127.257812 151.097656 C 126.226562 151.097656 125.285156 150.542969 125.164062 149.371094 L 124.253906 149.640625 C 124.5 151.195312 125.839844 151.964844 127.25 151.964844 Z M 127.25 151.964844 "/>
</g>
</svg>
